<svg xmlns="http://www.w3.org/2000/svg" xmlns:xlink="http://www.w3.org/1999/xlink" viewBox="0 0 217.39 90.72"><defs><linearGradient id="GradientFill_1" x1="109.18" y1="50.82" x2="109.18" y2="50.81" gradientUnits="userSpaceOnUse"><stop offset="0" stop-color="#fcb614"/><stop offset="0.01" stop-color="#fcb614"/><stop offset="0.48" stop-color="#ec9522"/><stop offset="0.98" stop-color="#e17b26"/><stop offset="1" stop-color="#e17b26"/></linearGradient><linearGradient id="GradientFill_1-2" x1="140.82" y1="52.95" x2="140.82" y2="52.94" xlink:href="#GradientFill_1"/><linearGradient id="GradientFill_1-3" x1="140.82" y1="69.66" x2="140.82" y2="69.66" xlink:href="#GradientFill_1"/><linearGradient id="GradientFill_1-4" x1="78.43" y1="69.66" x2="78.43" y2="69.66" xlink:href="#GradientFill_1"/><linearGradient id="GradientFill_1-5" x1="155.52" y1="52.77" x2="155.52" y2="52.76" xlink:href="#GradientFill_1"/><linearGradient id="GradientFill_1-6" x1="155.52" y1="69.48" x2="155.52" y2="69.48" xlink:href="#GradientFill_1"/><linearGradient id="GradientFill_1-7" x1="63.12" y1="52.77" x2="63.12" y2="52.76" xlink:href="#GradientFill_1"/><linearGradient id="GradientFill_1-8" x1="63.12" y1="69.48" x2="63.12" y2="69.48" xlink:href="#GradientFill_1"/></defs><g id="Layer_2" data-name="Layer 2"><g id="OBJECTS"><polygon points="15.62 11.29 23.23 11.29 25.46 84.75 13.39 84.75 15.62 11.29" style="fill:#ffe7ae;fill-rule:evenodd"/><polygon points="19.4 11.29 23.23 11.29 25.46 84.75 19.4 84.75 19.4 11.29" style="fill:#e5ce97;fill-rule:evenodd"/><path d="M17.14,12.33h0a.75.75,0,0,1,.78.72v2.38a.76.76,0,0,1-.78.72h0a.76.76,0,0,1-.79-.72V13.05A.75.75,0,0,1,17.14,12.33Z" style="fill:#6a5d41;fill-rule:evenodd"/><path d="M19.42,12.33h0a.75.75,0,0,1,.79.72v2.38a.76.76,0,0,1-.79.72h0a.76.76,0,0,1-.78-.72V13.05A.75.75,0,0,1,19.42,12.33Z" style="fill:#6a5d41;fill-rule:evenodd"/><path d="M21.71,12.33h0a.75.75,0,0,1,.79.72v2.38a.76.76,0,0,1-.79.72h0a.76.76,0,0,1-.78-.72V13.05A.75.75,0,0,1,21.71,12.33Z" style="fill:#6a5d41;fill-rule:evenodd"/><path d="M23.13,8.67a2.81,2.81,0,0,0,0-.43,3.84,3.84,0,0,0-3.48-3.92L19.4,1v8.2h4.25v-.5Z" style="fill:#e5ce97;fill-rule:evenodd"/><path d="M15.67,8.67a2.81,2.81,0,0,1,0-.43,3.84,3.84,0,0,1,3.48-3.92L19.4,1v8.2H15.15v-.5Z" style="fill:#ffe7ae;fill-rule:evenodd"/><polygon points="23.91 10.55 14.94 10.53 14.94 9.03 23.91 9.06 23.91 10.55" style="fill:#d2bd8a;fill-rule:evenodd"/><polygon points="14.94 10.53 15.53 11.52 23.24 11.52 23.91 10.55 14.94 10.53" style="fill:#c3af80;fill-rule:evenodd"/><polygon points="25.17 34.11 13.68 34.09 13.68 32.17 25.17 32.2 25.17 34.11" style="fill:#d2bd8a;fill-rule:evenodd"/><polygon points="13.68 34.09 14.43 35.35 24.31 35.35 25.17 34.11 13.68 34.09" style="fill:#c3af80;fill-rule:evenodd"/><polygon points="26.05 66.46 12.8 66.43 12.8 64.21 26.05 64.25 26.05 66.46" style="fill:#d2bd8a;fill-rule:evenodd"/><polygon points="12.8 66.43 13.66 67.89 25.06 67.89 26.05 66.46 12.8 66.43" style="fill:#c3af80;fill-rule:evenodd"/><polygon points="37.75 32.16 43.3 32.16 44.9 84.75 36.16 84.75 37.75 32.16" style="fill:#ffe7ae;fill-rule:evenodd"/><polygon points="40.51 32.16 43.3 32.16 44.9 84.75 40.51 84.75 40.51 32.16" style="fill:#e5ce97;fill-rule:evenodd"/><path d="M38.85,32.91h0a.56.56,0,0,1,.58.53v1.73a.56.56,0,0,1-.58.53h0a.56.56,0,0,1-.57-.53V33.44A.56.56,0,0,1,38.85,32.91Z" style="fill:#6a5d41;fill-rule:evenodd"/><path d="M40.52,32.91h0a.56.56,0,0,1,.58.53v1.73a.56.56,0,0,1-.58.53h0a.56.56,0,0,1-.57-.53V33.44A.56.56,0,0,1,40.52,32.91Z" style="fill:#6a5d41;fill-rule:evenodd"/><path d="M42.19,32.91h0a.56.56,0,0,1,.57.53v1.73a.56.56,0,0,1-.57.53h0a.56.56,0,0,1-.57-.53V33.44A.56.56,0,0,1,42.19,32.91Z" style="fill:#6a5d41;fill-rule:evenodd"/><path d="M43.23,30.25a3,3,0,0,0,0-.32,2.79,2.79,0,0,0-2.54-2.86l-.2-2.45v6h3.1v-.36Z" style="fill:#e5ce97;fill-rule:evenodd"/><path d="M37.78,30.25a3,3,0,0,1,0-.32,2.8,2.8,0,0,1,2.54-2.86l.21-2.45v6H37.4v-.36Z" style="fill:#ffe7ae;fill-rule:evenodd"/><polygon points="43.8 31.62 37.25 31.6 37.25 30.51 43.8 30.52 43.8 31.62" style="fill:#d2bd8a;fill-rule:evenodd"/><polygon points="37.25 31.6 37.68 32.33 43.31 32.33 43.8 31.62 37.25 31.6" style="fill:#c3af80;fill-rule:evenodd"/><polygon points="44.71 48.81 36.34 48.79 36.34 47.39 44.71 47.41 44.71 48.81" style="fill:#d2bd8a;fill-rule:evenodd"/><polygon points="36.34 48.79 36.88 49.71 44.09 49.71 44.71 48.81 36.34 48.79" style="fill:#c3af80;fill-rule:evenodd"/><polygon points="45.36 72.41 35.69 72.39 35.69 70.77 45.36 70.8 45.36 72.41" style="fill:#d2bd8a;fill-rule:evenodd"/><polygon points="35.69 72.39 36.32 73.45 44.64 73.45 45.36 72.41 35.69 72.39" style="fill:#c3af80;fill-rule:evenodd"/><polygon points="203.48 11.29 195.88 11.29 193.65 84.75 205.71 84.75 203.48 11.29" style="fill:#ffe7ae;fill-rule:evenodd"/><polygon points="199.7 11.29 195.88 11.29 193.65 84.75 199.7 84.75 199.7 11.29" style="fill:#e5ce97;fill-rule:evenodd"/><path d="M202,12.33h0a.75.75,0,0,0-.79.72v2.38a.76.76,0,0,0,.79.72h0a.77.77,0,0,0,.79-.72V13.05A.76.76,0,0,0,202,12.33Z" style="fill:#6a5d41;fill-rule:evenodd"/><path d="M199.68,12.33h0a.75.75,0,0,0-.79.72v2.38a.76.76,0,0,0,.79.72h0a.77.77,0,0,0,.79-.72V13.05A.76.76,0,0,0,199.68,12.33Z" style="fill:#6a5d41;fill-rule:evenodd"/><path d="M197.39,12.33h0a.76.76,0,0,0-.79.72v2.38a.77.77,0,0,0,.79.72h0a.77.77,0,0,0,.79-.72V13.05A.76.76,0,0,0,197.39,12.33Z" style="fill:#6a5d41;fill-rule:evenodd"/><path d="M196,8.67a2.81,2.81,0,0,1,0-.43,3.84,3.84,0,0,1,3.48-3.92L199.7,1v8.2h-4.25v-.5Z" style="fill:#e5ce97;fill-rule:evenodd"/><path d="M203.43,8.67a2.81,2.81,0,0,0,0-.43A3.84,3.84,0,0,0,200,4.32L199.7,1v8.2H204v-.5Z" style="fill:#ffe7ae;fill-rule:evenodd"/><polygon points="195.19 10.55 204.16 10.53 204.16 9.03 195.19 9.06 195.19 10.55" style="fill:#d2bd8a;fill-rule:evenodd"/><polygon points="204.16 10.53 203.58 11.52 195.86 11.52 195.19 10.55 204.16 10.53" style="fill:#c3af80;fill-rule:evenodd"/><polygon points="193.94 34.11 205.42 34.09 205.42 32.17 193.94 32.2 193.94 34.11" style="fill:#d2bd8a;fill-rule:evenodd"/><polygon points="205.42 34.09 204.67 35.35 194.79 35.35 193.94 34.11 205.42 34.09" style="fill:#c3af80;fill-rule:evenodd"/><polygon points="193.05 66.46 206.31 66.43 206.31 64.21 193.05 64.25 193.05 66.46" style="fill:#d2bd8a;fill-rule:evenodd"/><polygon points="206.31 66.43 205.44 67.89 194.04 67.89 193.05 66.46 206.31 66.43" style="fill:#c3af80;fill-rule:evenodd"/><polygon points="181.35 32.16 175.81 32.16 174.21 84.75 182.95 84.75 181.35 32.16" style="fill:#ffe7ae;fill-rule:evenodd"/><polygon points="178.6 32.16 175.81 32.16 174.21 84.75 178.6 84.75 178.6 32.16" style="fill:#e5ce97;fill-rule:evenodd"/><path d="M180.25,32.91h0a.56.56,0,0,0-.58.53v1.73a.56.56,0,0,0,.58.53h0a.56.56,0,0,0,.57-.53V33.44A.56.56,0,0,0,180.25,32.91Z" style="fill:#6a5d41;fill-rule:evenodd"/><path d="M178.58,32.91h0a.56.56,0,0,0-.58.53v1.73a.56.56,0,0,0,.58.53h0a.56.56,0,0,0,.57-.53V33.44A.56.56,0,0,0,178.58,32.91Z" style="fill:#6a5d41;fill-rule:evenodd"/><path d="M176.91,32.91h0a.56.56,0,0,0-.58.53v1.73a.56.56,0,0,0,.58.53h0a.56.56,0,0,0,.57-.53V33.44A.56.56,0,0,0,176.91,32.91Z" style="fill:#6a5d41;fill-rule:evenodd"/><path d="M175.87,30.25a3,3,0,0,1,0-.32,2.8,2.8,0,0,1,2.54-2.86l.21-2.45v6h-3.11v-.36Z" style="fill:#e5ce97;fill-rule:evenodd"/><path d="M181.32,30.25a3,3,0,0,0,0-.32,2.79,2.79,0,0,0-2.54-2.86l-.2-2.45v6h3.1v-.36Z" style="fill:#ffe7ae;fill-rule:evenodd"/><polygon points="175.31 31.62 181.85 31.6 181.85 30.51 175.31 30.52 175.31 31.62" style="fill:#d2bd8a;fill-rule:evenodd"/><polygon points="181.85 31.6 181.42 32.33 175.79 32.33 175.31 31.62 181.85 31.6" style="fill:#c3af80;fill-rule:evenodd"/><polygon points="174.39 48.81 182.77 48.79 182.77 47.39 174.39 47.41 174.39 48.81" style="fill:#d2bd8a;fill-rule:evenodd"/><polygon points="182.77 48.79 182.22 49.71 175.01 49.71 174.39 48.81 182.77 48.79" style="fill:#c3af80;fill-rule:evenodd"/><polygon points="173.74 72.41 183.41 72.39 183.41 70.77 173.74 70.8 173.74 72.41" style="fill:#d2bd8a;fill-rule:evenodd"/><polygon points="183.41 72.39 182.78 73.45 174.47 73.45 173.74 72.41 183.41 72.39" style="fill:#c3af80;fill-rule:evenodd"/><path d="M85.36,40.8c0-4-4.7-5.91-7.59-9h-.32c-2.89,3.05-7.59,4.93-7.59,9a5.9,5.9,0,0,0,1,3.46v6H84.57V43.89A6.11,6.11,0,0,0,85.36,40.8Z" style="fill:#ffe7ae;fill-rule:evenodd"/><path d="M85.36,40.8c0-4-4.7-5.91-7.59-9h-.16V50.22h7V43.89A6.11,6.11,0,0,0,85.36,40.8Z" style="fill:#e5ce97;fill-rule:evenodd"/><path d="M76.18,47.12c0-.73,1-.78,1.64-1.34.6.56,1.64.61,1.64,1.34h0v3.1h-3.3v-3.1Z" style="fill:#6a5d41;fill-rule:evenodd"/><path d="M76.17,47.12c0-.74,1-.78,1.64-1.34a2.16,2.16,0,0,0,.51.34c-.6.46-1.5.55-1.51,1.23h0v2.87h-.64v-3.1Z" style="fill:#7a6d4d;fill-rule:evenodd"/><path d="M72,47.11c0-.73.85-.78,1.33-1.33.48.55,1.31.6,1.32,1.33h0v3.11H72V47.11Z" style="fill:#6a5d41;fill-rule:evenodd"/><path d="M72,47.11c0-.73.85-.78,1.33-1.33a1.65,1.65,0,0,0,.41.34c-.49.45-1.21.54-1.22,1.22h0v2.88H72V47.11Z" style="fill:#7a6d4d;fill-rule:evenodd"/><path d="M83.58,47.11c0-.73-.84-.78-1.32-1.33-.48.55-1.32.6-1.33,1.33h0v3.11h2.66V47.11Z" style="fill:#6a5d41;fill-rule:evenodd"/><path d="M83.59,47.11c0-.73-.84-.78-1.32-1.33a1.85,1.85,0,0,1-.41.34c.48.45,1.21.54,1.22,1.22h0v2.88h.52V47.11Z" style="fill:#7a6d4d;fill-rule:evenodd"/><rect x="70.89" y="44.41" width="13.68" height="0.32" style="fill:#d2bd8a"/><rect x="70.89" y="44.58" width="13.68" height="0.16" style="fill:#c3af80"/><path d="M134.36,40.8c0-4,4.69-5.91,7.58-9h.33c2.89,3.05,7.58,4.93,7.58,9a6,6,0,0,1-1,3.46v6H135.15V43.89A6,6,0,0,1,134.36,40.8Z" style="fill:#ffe7ae;fill-rule:evenodd"/><path d="M134.36,40.8c0-4,4.69-5.91,7.58-9h.17V50.22h-7V43.89A6,6,0,0,1,134.36,40.8Z" style="fill:#e5ce97;fill-rule:evenodd"/><path d="M143.54,47.12c0-.73-1-.78-1.65-1.34-.59.56-1.63.61-1.64,1.34h0v3.1h3.3v-3.1Z" style="fill:#6a5d41;fill-rule:evenodd"/><path d="M143.55,47.12c0-.74-1.05-.78-1.64-1.34a2.22,2.22,0,0,1-.52.34c.61.46,1.51.55,1.52,1.23h0v2.87h.65v-3.1Z" style="fill:#7a6d4d;fill-rule:evenodd"/><path d="M147.67,47.11c0-.73-.84-.78-1.32-1.33-.48.55-1.32.6-1.33,1.33h0v3.11h2.66V47.11Z" style="fill:#6a5d41;fill-rule:evenodd"/><path d="M147.68,47.11c0-.73-.84-.78-1.32-1.33a1.85,1.85,0,0,1-.41.34c.48.45,1.21.54,1.22,1.22h0v2.88h.52V47.11Z" style="fill:#7a6d4d;fill-rule:evenodd"/><path d="M136.13,47.11c0-.73.85-.78,1.33-1.33.48.55,1.31.6,1.32,1.33h0v3.11h-2.66V47.11Z" style="fill:#6a5d41;fill-rule:evenodd"/><path d="M136.12,47.11c0-.73.85-.78,1.33-1.33a1.65,1.65,0,0,0,.41.34c-.49.45-1.21.54-1.22,1.22h0v2.88h-.51V47.11Z" style="fill:#7a6d4d;fill-rule:evenodd"/><rect x="135.15" y="44.41" width="13.68" height="0.32" style="fill:#d2bd8a"/><rect x="135.15" y="44.58" width="13.68" height="0.16" style="fill:#c3af80"/><path d="M89.06,24.61c0-11.09,12.88-16.24,20.81-24.61l17,43.77H91.22V33.07A16.56,16.56,0,0,1,89.06,24.61Z" style="fill:#ffe7ae;fill-rule:evenodd"/><path d="M130.68,24.61c0-11.09-12.88-16.24-20.81-24.61V43.77h18.65V33.07A16.56,16.56,0,0,0,130.68,24.61Z" style="fill:#e5ce97;fill-rule:evenodd"/><rect x="60.1" y="47.76" width="99.52" height="4.08" style="fill:#d2bd8a"/><polygon points="160.81 49.99 160.81 86.95 56.76 86.95 57.29 49.99 160.81 49.99" style="fill:#ffe7ae;fill-rule:evenodd"/><polygon points="57.29 49.99 56.76 86.95 69.61 86.95 69.61 49.99 57.29 49.99" style="fill:#e5ce97;fill-rule:evenodd"/><rect x="149.44" y="49.99" width="11.37" height="36.88" style="fill:#e5ce97"/><rect x="88.21" y="39.17" width="43.3" height="47.11" style="fill:#e7d09a"/><path d="M125.21,44.75H93.9V83.84h31.31V44.75Z" style="fill:#c3af80;fill-rule:evenodd"/><path d="M120,60.64c0-5.4-6.86-5.74-10.77-9.82-3.91,4.08-10.72,4.42-10.77,9.82h0V85.29H120V60.64Z" style="fill:#7a6d4d;fill-rule:evenodd"/><path d="M120,60.64c0-4.29-4.35-5.38-8.08-7.7-4,3.17-9.61,3.89-9.66,8.81h0V85.29H120V60.64Z" style="fill:#6a5d41;fill-rule:evenodd"/><path d="M109.17,50.81h0Z" style="fill-rule:evenodd;fill:url(#GradientFill_1)"/><path d="M145.3,57c0-2.24-2.85-2.38-4.48-4.08-1.63,1.7-4.46,1.84-4.48,4.08h0V67.3h9V57Z" style="fill:#6a5d41;fill-rule:evenodd"/><polygon points="140.81 52.94 140.82 52.95 140.82 52.94 140.81 52.94" style="fill-rule:evenodd;fill:url(#GradientFill_1-2)"/><path d="M145.33,57c0-2.25-2.86-2.39-4.48-4.09a6.18,6.18,0,0,1-1.4,1.05c1.65,1.39,4.11,1.66,4.13,3.75h0v9.55h1.75V57Z" style="fill:#7a6d4d;fill-rule:evenodd"/><path d="M145.3,73.75c0-2.25-2.85-2.39-4.48-4.09-1.63,1.7-4.46,1.84-4.48,4.09h0V84h9V73.75Z" style="fill:#6a5d41;fill-rule:evenodd"/><polygon points="140.81 69.66 140.82 69.66 140.82 69.66 140.81 69.66" style="fill-rule:evenodd;fill:url(#GradientFill_1-3)"/><path d="M145.33,73.74c0-2.25-2.86-2.38-4.48-4.09a6.18,6.18,0,0,1-1.4,1c1.65,1.4,4.11,1.67,4.13,3.75h0V84h1.75V73.74Z" style="fill:#7a6d4d;fill-rule:evenodd"/><path d="M73.94,57c0-2.24,2.86-2.38,4.49-4.08,1.62,1.7,4.46,1.84,4.48,4.08h0V67.3h-9V57Z" style="fill:#6a5d41;fill-rule:evenodd"/><path d="M73.91,57c0-2.25,2.86-2.39,4.49-4.09A6.13,6.13,0,0,0,79.79,54c-1.65,1.39-4.1,1.66-4.13,3.75h0v9.55H73.89V57Z" style="fill:#7a6d4d;fill-rule:evenodd"/><path d="M73.94,73.75c0-2.25,2.86-2.39,4.49-4.09,1.62,1.7,4.46,1.84,4.48,4.09h0V84h-9V73.75Z" style="fill:#6a5d41;fill-rule:evenodd"/><polygon points="78.43 69.66 78.43 69.66 78.42 69.66 78.43 69.66" style="fill-rule:evenodd;fill:url(#GradientFill_1-4)"/><path d="M73.91,73.74c0-2.25,2.86-2.38,4.49-4.09a6.13,6.13,0,0,0,1.39,1c-1.65,1.4-4.1,1.67-4.13,3.75h0V84H73.89V73.74Z" style="fill:#7a6d4d;fill-rule:evenodd"/><rect y="83.84" width="217.39" height="6.88" style="fill:#c3af80"/><rect y="83.84" width="217.39" height="3.33" style="fill:#e7d09a"/><rect x="86.78" y="37.19" width="46.15" height="1.85" style="fill:#d2bd8a"/><rect x="86.79" y="38.54" width="46.12" height="0.74" style="fill:#c3af80"/><rect x="90.74" y="34.08" width="38.26" height="1.72" style="fill:#d2bd8a"/><rect x="90.74" y="34.94" width="38.26" height="0.86" style="fill:#c3af80"/><path d="M158.74,56.86c0-2.25-2.05-2.39-3.22-4.09-1.17,1.7-3.21,1.84-3.22,4.09h0V67.12h6.45V56.86Z" style="fill:#6a5d41;fill-rule:evenodd"/><polygon points="155.51 52.76 155.52 52.77 155.52 52.76 155.51 52.76" style="fill-rule:evenodd;fill:url(#GradientFill_1-5)"/><path d="M158.76,56.85c0-2.25-2-2.39-3.22-4.09a4.78,4.78,0,0,1-1,1.05c1.18,1.4,3,1.66,3,3.75h0v9.55h1.26V56.85Z" style="fill:#7a6d4d;fill-rule:evenodd"/><path d="M158.74,73.57c0-2.25-2.05-2.39-3.22-4.09-1.17,1.7-3.21,1.84-3.22,4.09h0V83.84h6.45V73.57Z" style="fill:#6a5d41;fill-rule:evenodd"/><polygon points="155.51 69.48 155.52 69.48 155.52 69.48 155.51 69.48" style="fill-rule:evenodd;fill:url(#GradientFill_1-6)"/><path d="M158.76,73.56c0-2.25-2-2.38-3.22-4.09a4.78,4.78,0,0,1-1,1c1.18,1.4,3,1.67,3,3.76h0v9.55h1.26V73.56Z" style="fill:#7a6d4d;fill-rule:evenodd"/><path d="M59.9,56.86c0-2.25,2.05-2.39,3.22-4.09,1.17,1.7,3.21,1.84,3.22,4.09h0V67.12H59.89V56.86Z" style="fill:#6a5d41;fill-rule:evenodd"/><polygon points="63.12 52.76 63.12 52.77 63.12 52.76 63.12 52.76" style="fill-rule:evenodd;fill:url(#GradientFill_1-7)"/><path d="M59.88,56.85c0-2.25,2-2.39,3.22-4.09a4.78,4.78,0,0,0,1,1.05c-1.19,1.4-2.95,1.66-3,3.75h0v9.55H59.86V56.85Z" style="fill:#7a6d4d;fill-rule:evenodd"/><path d="M59.9,73.57c0-2.25,2.05-2.39,3.22-4.09,1.17,1.7,3.21,1.84,3.22,4.09h0V83.84H59.89V73.57Z" style="fill:#6a5d41;fill-rule:evenodd"/><polygon points="63.12 69.48 63.12 69.48 63.12 69.48 63.12 69.48" style="fill-rule:evenodd;fill:url(#GradientFill_1-8)"/><path d="M59.88,73.56c0-2.25,2-2.38,3.22-4.09a4.78,4.78,0,0,0,1,1c-1.19,1.4-2.95,1.67-3,3.76h0v9.55H59.86V73.56Z" style="fill:#7a6d4d;fill-rule:evenodd"/><rect x="88.25" y="39.28" width="1.28" height="44.55" style="fill:#c3af80"/><rect x="130.21" y="39.28" width="1.28" height="44.55" style="fill:#c3af80"/></g></g></svg>