<svg xmlns="http://www.w3.org/2000/svg" xmlns:xlink="http://www.w3.org/1999/xlink" viewBox="0 0 174.92 51.36"><defs><linearGradient id="linear-gradient" x1="46.63" y1="25.57" x2="93.27" y2="25.57" gradientUnits="userSpaceOnUse"><stop offset="0" stop-color="#dea327"/><stop offset="0.45" stop-color="#de9f27"/><stop offset="0.91" stop-color="#de9327"/><stop offset="1" stop-color="#de8f27"/></linearGradient><linearGradient id="linear-gradient-2" x1="0" y1="32.16" x2="35.02" y2="32.16" xlink:href="#linear-gradient"/><linearGradient id="linear-gradient-3" x1="104.88" y1="32.16" x2="139.9" y2="32.16" xlink:href="#linear-gradient"/></defs><g id="Layer_2" data-name="Layer 2"><g id="OBJECTS"><polygon points="93.27 0 116.58 25.57 139.9 51.14 93.27 51.14 46.63 51.14 69.95 25.57 93.27 0" style="fill:#efbf59;fill-rule:evenodd"/><polygon points="79.92 51.14 46.63 51.14 69.95 25.57 93.27 0 79.92 51.14" style="fill-rule:evenodd;fill:url(#linear-gradient)"/><path d="M101.38,17.12c-4.76,1.12-14.65.69-5.07,2.21,5.33.84.9-.18-.54,2.16-.62,1-10.39,1.51-1,2.63.87.11,21.79-.33,18.22-.2-.33,0-13.74-1.5-5.65-1.34,2.22,0,1.63-1.63-1.13-1.5-5.42.26,9.26-1.95.4-1.79-7.37.13.21-1-4-2.1A2.1,2.1,0,0,0,101.38,17.12Z" style="fill:#dfaa1e;fill-rule:evenodd"/><path d="M114,33.19c-.15,0-21.91-.81-14.49.12,14,1.76,2.44,0,4.71,1.39C102.4,34.43,82.45,37,94,36.5c9.19-.42,17-.86,26.17-.61,7,.18-4.37-1.67-4.51-1.75.19-.76,4.43-.56-.6-1.08C114.28,33,115,33.25,114,33.19Z" style="fill:#dfaa1e;fill-rule:evenodd"/><path d="M113.58,40.22s-6.56-.16-6.73.5c.21.18,6.86.21,2.09.54-.11,0-6.57,1.33-6.73,1.38-.1.39,21.82-.52,24.35-1.41,0-1.42-7.49-.31-5.33-1.34,2-1-7.29-1.22-7-.28C114.37,40.16,113.87,40.16,113.58,40.22Z" style="fill:#dfaa1e;fill-rule:evenodd"/><path d="M69,26.62l1-1.05,4.91-5.38.37,0c2.88.24,8.3-.25,2.68,1.49,0,.89,9.42,1.18,6.84,2.52-1.44.74-9.42-.6-4.37,1.67s-4.87,0-6.91.75C73.44,26.65,71.39,26.66,69,26.62Z" style="fill:#d5961f;fill-rule:evenodd"/><path d="M69,26.62l1-1.05,4.91-5.38.37,0c2.88.24,8.3-.25,2.68,1.49,0,.89,9.42,1.18,6.84,2.52-1.44.74-9.42-.6-4.37,1.67s-4.87,0-6.91.75C73.44,26.65,71.39,26.66,69,26.62Z" style="fill:#d5961f;fill-rule:evenodd"/><path d="M63.59,32.55l-5.14,5.63,1.23.08c2.67.15,5.54.13,5.57.1.56-.7,3-.1,2.49-.53-1.35-1,2.18-.74,1.19-1.18-1.74-.78-1.47-1.07-.32-1.17,2.07-.17,7,.29,8.14-.27,2.25-1.06-5.42-.88-5.69-.91-10.16-1.29,5-.87-2.61-1.68A21,21,0,0,0,63.59,32.55Z" style="fill:#d5961f;fill-rule:evenodd"/><polygon points="35.02 12.96 52.53 32.16 70.04 51.36 35.02 51.36 0 51.36 17.51 32.16 35.02 12.96" style="fill:#efbf59;fill-rule:evenodd"/><polygon points="25 51.36 0 51.36 17.51 32.16 35.02 12.96 25 51.36" style="fill-rule:evenodd;fill:url(#linear-gradient-2)"/><path d="M41.12,25.81c-3.58.84-11,.52-3.81,1.66,4,.63.67-.14-.41,1.62-.46.75-7.8,1.13-.77,2,.65.08,16.36-.25,13.68-.15-.24,0-10.32-1.13-4.25-1,1.68,0,1.23-1.22-.84-1.12-4.08.19,7-1.47.3-1.35-5.54.1.16-.73-3-1.57A1.51,1.51,0,0,0,41.12,25.81Z" style="fill:#dfaa1e;fill-rule:evenodd"/><path d="M50.61,37.88c-.12,0-16.46-.61-10.89.09,10.54,1.32,1.84,0,3.54,1.05-1.38-.21-16.36,1.73-7.66,1.34,6.89-.31,12.74-.64,19.64-.46,5.26.15-3.28-1.25-3.38-1.3.14-.58,3.33-.43-.45-.82C50.8,37.72,51.34,37.93,50.61,37.88Z" style="fill:#dfaa1e;fill-rule:evenodd"/><path d="M50.28,43.16s-4.93-.12-5.06.38c.16.13,5.15.16,1.57.4-.08,0-4.93,1-5,1-.07.29,16.38-.4,18.28-1.06,0-1.07-5.62-.23-4-1s-5.47-.92-5.27-.21C50.87,43.11,50.5,43.11,50.28,43.16Z" style="fill:#dfaa1e;fill-rule:evenodd"/><path d="M16.79,33l.72-.79,3.69-4h.28c2.16.19,6.23-.19,2,1.12,0,.67,7.07.89,5.13,1.89-1.08.56-7.07-.44-3.28,1.26s-3.65,0-5.18.56C20.13,33,18.59,33,16.79,33Z" style="fill:#d5961f;fill-rule:evenodd"/><path d="M16.79,33l.72-.79,3.69-4h.28c2.16.19,6.23-.19,2,1.12,0,.67,7.07.89,5.13,1.89-1.08.56-7.07-.44-3.28,1.26s-3.65,0-5.18.56C20.13,33,18.59,33,16.79,33Z" style="fill:#d5961f;fill-rule:evenodd"/><path d="M12.73,37.4,8.87,41.63l.92.06c2,.11,4.17.1,4.19.07.42-.53,2.29-.07,1.87-.39-1-.77,1.64-.56.89-.89-1.3-.58-1.1-.81-.23-.88,1.55-.13,5.23.21,6.11-.2,1.69-.8-4.07-.66-4.28-.69-7.62-1,3.78-.65-2-1.26A15.49,15.49,0,0,0,12.73,37.4Z" style="fill:#d5961f;fill-rule:evenodd"/><polygon points="139.9 12.96 157.41 32.16 174.92 51.36 139.9 51.36 104.88 51.36 122.39 32.16 139.9 12.96" style="fill:#efbf59;fill-rule:evenodd"/><polygon points="129.88 51.36 104.88 51.36 122.39 32.16 139.9 12.96 129.88 51.36" style="fill-rule:evenodd;fill:url(#linear-gradient-3)"/><path d="M146,25.81c-3.58.84-11,.52-3.81,1.66,4,.63.67-.14-.41,1.62-.46.75-7.8,1.13-.77,2,.65.08,16.36-.25,13.68-.15-.24,0-10.32-1.13-4.25-1,1.68,0,1.23-1.22-.84-1.12-4.08.19,7-1.47.3-1.35-5.54.1.16-.73-3-1.57A1.51,1.51,0,0,0,146,25.81Z" style="fill:#dfaa1e;fill-rule:evenodd"/><path d="M155.49,37.88c-.12,0-16.46-.61-10.89.09,10.54,1.32,1.84,0,3.54,1.05-1.38-.21-16.36,1.73-7.67,1.34,6.9-.31,12.74-.64,19.65-.46,5.26.15-3.28-1.25-3.38-1.3.14-.58,3.33-.43-.45-.82C155.68,37.72,156.22,37.93,155.49,37.88Z" style="fill:#dfaa1e;fill-rule:evenodd"/><path d="M155.16,43.16s-4.93-.12-5.06.38c.16.13,5.15.16,1.57.4-.08,0-4.93,1-5,1-.08.29,16.38-.4,18.28-1.06,0-1.07-5.62-.23-4-1s-5.47-.92-5.27-.21C155.75,43.11,155.38,43.11,155.16,43.16Z" style="fill:#dfaa1e;fill-rule:evenodd"/><path d="M121.67,33l.72-.79,3.68-4h.29c2.16.19,6.23-.19,2,1.12,0,.67,7.07.89,5.13,1.89-1.08.56-7.07-.44-3.28,1.26s-3.65,0-5.18.56C125,33,123.47,33,121.67,33Z" style="fill:#d5961f;fill-rule:evenodd"/><path d="M121.67,33l.72-.79,3.68-4h.29c2.16.19,6.23-.19,2,1.12,0,.67,7.07.89,5.13,1.89-1.08.56-7.07-.44-3.28,1.26s-3.65,0-5.18.56C125,33,123.47,33,121.67,33Z" style="fill:#d5961f;fill-rule:evenodd"/><path d="M117.61,37.4l-3.86,4.23.92.06c2,.11,4.17.1,4.19.07.42-.53,2.29-.07,1.87-.39-1-.77,1.64-.56.89-.89-1.3-.58-1.1-.81-.23-.88,1.55-.13,5.23.21,6.11-.2,1.69-.8-4.07-.66-4.28-.69-7.63-1,3.78-.65-2-1.26A15.49,15.49,0,0,0,117.61,37.4Z" style="fill:#d5961f;fill-rule:evenodd"/></g></g></svg>