<svg xmlns="http://www.w3.org/2000/svg" viewBox="0 0 124.65 141.63"><g id="Layer_2" data-name="Layer 2"><g id="OBJECTS"><path d="M62.33,10.86c-.18.16-1,.14-1,.14-7.84,6.91-15.47,12.07-24.06,13.22l2.2,1.48a49.08,49.08,0,0,0,13.71-1.79c6.11-2,10.58-7.58,10.56-7.17S62.33,10.86,62.33,10.86Z" style="fill:#6d6e70;fill-rule:evenodd"/><path d="M62.14,10.8c.18.16,1,.14,1,.14C71,17.85,78.65,23,87.24,24.16L85,25.64a49,49,0,0,1-13.71-1.79c-6.11-2-10.58-7.58-10.56-7.17S62.14,10.8,62.14,10.8Z" style="fill:#6d6e70;fill-rule:evenodd"/><path d="M76.27,24.65s7.2,4.4,11.73,5.91A81.83,81.83,0,0,0,100.29,33l-2.2,1.48a49.08,49.08,0,0,1-13.71-1.79c-6.11-2-10.58-7.58-10.56-7.17S76.27,24.65,76.27,24.65Z" style="fill:#6d6e70;fill-rule:evenodd"/><path d="M48.88,24.78s-7.2,4.39-11.72,5.9a82.08,82.08,0,0,1-12.29,2.47l2.2,1.48a49.08,49.08,0,0,0,13.71-1.79c6.11-2,10.57-7.58,10.55-7.17S48.88,24.78,48.88,24.78Z" style="fill:#6d6e70;fill-rule:evenodd"/><rect x="34.24" y="33.96" width="56.13" height="76.05" style="fill:#682e2f"/><rect x="34.24" y="50.33" width="56.13" height="59.67" style="fill:#682e2f"/><path d="M37.69,99.63h2.45v1.21H37.69V99.63Zm2.72,0h2.9v1.21h-2.9V99.63Zm3.17,0H46v1.21H43.58V99.63ZM46,101v1.45H43.58V101Zm0,1.65v1.45H43.58v-1.45Zm0,1.65v1.45H43.58v-1.45ZM46,106v1.2H43.58V106Zm-2.72,1.2h-2.9V106h2.9v1.2Zm-3.17,0H37.69V106h2.45v1.2Zm-2.45-1.4v-1.45h2.45v1.45Zm0-1.65v-1.45h2.45v1.45Zm0-1.65V101h2.45v1.45ZM40.41,101v1.45h2.9V101Zm0,1.65v1.45h2.9v-1.45Zm0,1.65v1.45h2.9v-1.45Z" style="fill:#9a7374;fill-rule:evenodd"/><path d="M47.53,99.63H50v1.21H47.53V99.63Zm2.73,0h2.89v1.21H50.26V99.63Zm3.16,0h2.45v1.21H53.42V99.63ZM55.87,101v1.45H53.42V101Zm0,1.65v1.45H53.42v-1.45Zm0,1.65v1.45H53.42v-1.45Zm0,1.65v1.2H53.42V106Zm-2.72,1.2H50.26V106h2.89v1.2Zm-3.17,0H47.53V106H50v1.2Zm-2.45-1.4v-1.45H50v1.45Zm0-1.65v-1.45H50v1.45Zm0-1.65V101H50v1.45ZM50.26,101v1.45h2.89V101Zm0,1.65v1.45h2.89v-1.45Zm0,1.65v1.45h2.89v-1.45Z" style="fill:#9a7374;fill-rule:evenodd"/><path d="M68.75,99.63H71.2v1.21H68.75V99.63Zm2.72,0h2.89v1.21H71.47V99.63Zm3.17,0h2.45v1.21H74.64V99.63ZM77.09,101v1.45H74.64V101Zm0,1.65v1.45H74.64v-1.45Zm0,1.65v1.45H74.64v-1.45Zm0,1.65v1.2H74.64V106Zm-2.73,1.2H71.47V106h2.89v1.2Zm-3.16,0H68.75V106H71.2v1.2Zm-2.45-1.4v-1.45H71.2v1.45Zm0-1.65v-1.45H71.2v1.45Zm0-1.65V101H71.2v1.45ZM71.47,101v1.45h2.89V101Zm0,1.65v1.45h2.89v-1.45Zm0,1.65v1.45h2.89v-1.45Z" style="fill:#9a7374;fill-rule:evenodd"/><path d="M78.59,99.63H81v1.21H78.59V99.63Zm2.72,0h2.9v1.21h-2.9V99.63Zm3.17,0h2.45v1.21H84.48V99.63ZM86.93,101v1.45H84.48V101Zm0,1.65v1.45H84.48v-1.45Zm0,1.65v1.45H84.48v-1.45Zm0,1.65v1.2H84.48V106Zm-2.72,1.2h-2.9V106h2.9v1.2Zm-3.17,0H78.59V106H81v1.2Zm-2.45-1.4v-1.45H81v1.45Zm0-1.65v-1.45H81v1.45Zm0-1.65V101H81v1.45ZM81.31,101v1.45h2.9V101Zm0,1.65v1.45h2.9v-1.45Zm0,1.65v1.45h2.9v-1.45Z" style="fill:#9a7374;fill-rule:evenodd"/><path d="M37.69,76.17h2.45v1.21H37.69V76.17Zm2.72,0h2.9v1.21h-2.9V76.17Zm3.17,0H46v1.21H43.58V76.17ZM46,77.58V79H43.58V77.58Zm0,1.65v1.45H43.58V79.23Zm0,1.65v1.45H43.58V80.88Zm0,1.65v1.2H43.58v-1.2Zm-2.72,1.2h-2.9v-1.2h2.9v1.2Zm-3.17,0H37.69v-1.2h2.45v1.2Zm-2.45-1.4V80.88h2.45v1.45Zm0-1.65V79.23h2.45v1.45Zm0-1.65V77.58h2.45V79Zm2.72-1.45V79h2.9V77.58Zm0,1.65v1.45h2.9V79.23Zm0,1.65v1.45h2.9V80.88Z" style="fill:#9a7374;fill-rule:evenodd"/><path d="M47.53,76.17H50v1.21H47.53V76.17Zm2.73,0h2.89v1.21H50.26V76.17Zm3.16,0h2.45v1.21H53.42V76.17Zm2.45,1.41V79H53.42V77.58Zm0,1.65v1.45H53.42V79.23Zm0,1.65v1.45H53.42V80.88Zm0,1.65v1.2H53.42v-1.2Zm-2.72,1.2H50.26v-1.2h2.89v1.2Zm-3.17,0H47.53v-1.2H50v1.2Zm-2.45-1.4V80.88H50v1.45Zm0-1.65V79.23H50v1.45Zm0-1.65V77.58H50V79Zm2.73-1.45V79h2.89V77.58Zm0,1.65v1.45h2.89V79.23Zm0,1.65v1.45h2.89V80.88Z" style="fill:#9a7374;fill-rule:evenodd"/><path d="M68.75,76.17H71.2v1.21H68.75V76.17Zm2.72,0h2.89v1.21H71.47V76.17Zm3.17,0h2.45v1.21H74.64V76.17Zm2.45,1.41V79H74.64V77.58Zm0,1.65v1.45H74.64V79.23Zm0,1.65v1.45H74.64V80.88Zm0,1.65v1.2H74.64v-1.2Zm-2.73,1.2H71.47v-1.2h2.89v1.2Zm-3.16,0H68.75v-1.2H71.2v1.2Zm-2.45-1.4V80.88H71.2v1.45Zm0-1.65V79.23H71.2v1.45Zm0-1.65V77.58H71.2V79Zm2.72-1.45V79h2.89V77.58Zm0,1.65v1.45h2.89V79.23Zm0,1.65v1.45h2.89V80.88Z" style="fill:#9a7374;fill-rule:evenodd"/><path d="M78.59,76.17H81v1.21H78.59V76.17Zm2.72,0h2.9v1.21h-2.9V76.17Zm3.17,0h2.45v1.21H84.48V76.17Zm2.45,1.41V79H84.48V77.58Zm0,1.65v1.45H84.48V79.23Zm0,1.65v1.45H84.48V80.88Zm0,1.65v1.2H84.48v-1.2Zm-2.72,1.2h-2.9v-1.2h2.9v1.2Zm-3.17,0H78.59v-1.2H81v1.2Zm-2.45-1.4V80.88H81v1.45Zm0-1.65V79.23H81v1.45Zm0-1.65V77.58H81V79Zm2.72-1.45V79h2.9V77.58Zm0,1.65v1.45h2.9V79.23Zm0,1.65v1.45h2.9V80.88Z" style="fill:#9a7374;fill-rule:evenodd"/><path d="M37.69,51.79h2.45V53H37.69V51.79Zm2.72,0h2.9V53h-2.9V51.79Zm3.17,0H46V53H43.58V51.79ZM46,53.2v1.45H43.58V53.2Zm0,1.65V56.3H43.58V54.85Zm0,1.65v1.44H43.58V56.5Zm0,1.65v1.2H43.58v-1.2Zm-2.72,1.2h-2.9v-1.2h2.9v1.2Zm-3.17,0H37.69v-1.2h2.45v1.2Zm-2.45-1.41V56.5h2.45v1.44Zm0-1.64V54.85h2.45V56.3Zm0-1.65V53.2h2.45v1.45Zm2.72-1.45v1.45h2.9V53.2Zm0,1.65V56.3h2.9V54.85Zm0,1.65v1.44h2.9V56.5Z" style="fill:#9a7374;fill-rule:evenodd"/><path d="M47.53,51.79H50V53H47.53V51.79Zm2.73,0h2.89V53H50.26V51.79Zm3.16,0h2.45V53H53.42V51.79Zm2.45,1.41v1.45H53.42V53.2Zm0,1.65V56.3H53.42V54.85Zm0,1.65v1.44H53.42V56.5Zm0,1.65v1.2H53.42v-1.2Zm-2.72,1.2H50.26v-1.2h2.89v1.2Zm-3.17,0H47.53v-1.2H50v1.2Zm-2.45-1.41V56.5H50v1.44Zm0-1.64V54.85H50V56.3Zm0-1.65V53.2H50v1.45Zm2.73-1.45v1.45h2.89V53.2Zm0,1.65V56.3h2.89V54.85Zm0,1.65v1.44h2.89V56.5Z" style="fill:#9a7374;fill-rule:evenodd"/><path d="M68.75,51.79H71.2V53H68.75V51.79Zm2.72,0h2.89V53H71.47V51.79Zm3.17,0h2.45V53H74.64V51.79Zm2.45,1.41v1.45H74.64V53.2Zm0,1.65V56.3H74.64V54.85Zm0,1.65v1.44H74.64V56.5Zm0,1.65v1.2H74.64v-1.2Zm-2.73,1.2H71.47v-1.2h2.89v1.2Zm-3.16,0H68.75v-1.2H71.2v1.2Zm-2.45-1.41V56.5H71.2v1.44Zm0-1.64V54.85H71.2V56.3Zm0-1.65V53.2H71.2v1.45Zm2.72-1.45v1.45h2.89V53.2Zm0,1.65V56.3h2.89V54.85Zm0,1.65v1.44h2.89V56.5Z" style="fill:#9a7374;fill-rule:evenodd"/><path d="M78.59,51.79H81V53H78.59V51.79Zm2.72,0h2.9V53h-2.9V51.79Zm3.17,0h2.45V53H84.48V51.79Zm2.45,1.41v1.45H84.48V53.2Zm0,1.65V56.3H84.48V54.85Zm0,1.65v1.44H84.48V56.5Zm0,1.65v1.2H84.48v-1.2Zm-2.72,1.2h-2.9v-1.2h2.9v1.2Zm-3.17,0H78.59v-1.2H81v1.2Zm-2.45-1.41V56.5H81v1.44Zm0-1.64V54.85H81V56.3Zm0-1.65V53.2H81v1.45Zm2.72-1.45v1.45h2.9V53.2Zm0,1.65V56.3h2.9V54.85Zm0,1.65v1.44h2.9V56.5Z" style="fill:#9a7374;fill-rule:evenodd"/><rect x="34.28" y="49.34" width="1.76" height="41.7" style="fill:#ca2d36"/><rect x="35.16" y="49.34" width="0.88" height="41.7" style="fill:#b4262b"/><rect x="50.47" y="49.41" width="1.76" height="41.7" style="fill:#ca2d36"/><rect x="51.35" y="49.41" width="0.88" height="41.7" style="fill:#b4262b"/><rect x="72.42" y="49.54" width="1.76" height="41.7" style="fill:#ca2d36"/><rect x="73.3" y="49.54" width="0.88" height="41.7" style="fill:#b4262b"/><rect x="88.62" y="49.6" width="1.76" height="41.7" style="fill:#ca2d36"/><rect x="89.5" y="49.6" width="0.88" height="41.7" style="fill:#b4262b"/><rect x="28.51" y="97.7" width="1.76" height="12.8" style="fill:#ca2d36"/><rect x="29.39" y="97.7" width="0.88" height="12.8" style="fill:#b4262b"/><rect x="39.49" y="97.72" width="1.76" height="12.8" style="fill:#ca2d36"/><rect x="40.37" y="97.72" width="0.88" height="12.8" style="fill:#b4262b"/><rect x="50.47" y="97.74" width="1.76" height="12.8" style="fill:#ca2d36"/><rect x="51.35" y="97.74" width="0.88" height="12.8" style="fill:#b4262b"/><rect x="72.42" y="97.78" width="1.76" height="12.8" style="fill:#ca2d36"/><rect x="73.3" y="97.78" width="0.88" height="12.8" style="fill:#b4262b"/><rect x="83.4" y="97.8" width="1.76" height="12.8" style="fill:#ca2d36"/><rect x="84.28" y="97.8" width="0.88" height="12.8" style="fill:#b4262b"/><rect x="94.38" y="97.82" width="1.76" height="12.8" style="fill:#ca2d36"/><rect x="95.26" y="97.82" width="0.88" height="12.8" style="fill:#b4262b"/><path d="M94.85,108.56l3.35-1.07,1.08-.7c6,3.29,16.15,8,23.55,8.8a11,11,0,0,1,1.81-.2c.18.09-1.41,1.78-1.41,1.78a43,43,0,0,1-5.31.43c-.6-.16-11.51-2.91-16.76-5.48S94.85,108.56,94.85,108.56Z" style="fill:#6d6e70;fill-rule:evenodd"/><rect x="23.49" y="110.62" width="77.67" height="28.05" style="fill:#682e2f"/><path d="M28,121.43h3.42v1.67H28v-1.67Zm3.79,0h4v1.67h-4v-1.67Zm4.41,0h3.42v1.67H36.24v-1.67Zm3.42,1.95v2H36.24v-2Zm0,2.3v2H36.24v-2Zm0,2.3v2H36.24v-2Zm0,2.29V132H36.24v-1.68ZM35.87,132h-4v-1.68h4V132Zm-4.41,0H28v-1.68h3.42V132ZM28,130v-2h3.42v2Zm0-2.29v-2h3.42v2Zm0-2.3v-2h3.42v2Zm3.79-2v2h4v-2Zm0,2.3v2h4v-2Zm0,2.3v2h4v-2Z" style="fill:#9a7374;fill-rule:evenodd"/><path d="M41.75,121.43h3.41v1.67H41.75v-1.67Zm3.79,0h4v1.67h-4v-1.67Zm4.41,0h3.41v1.67H50v-1.67Zm3.41,1.95v2H50v-2Zm0,2.3v2H50v-2Zm0,2.3v2H50v-2Zm0,2.29V132H50v-1.68ZM49.57,132h-4v-1.68h4V132Zm-4.41,0H41.75v-1.68h3.41V132Zm-3.41-2v-2h3.41v2Zm0-2.29v-2h3.41v2Zm0-2.3v-2h3.41v2Zm3.79-2v2h4v-2Zm0,2.3v2h4v-2Zm0,2.3v2h4v-2Z" style="fill:#9a7374;fill-rule:evenodd"/><path d="M71.29,121.43H74.7v1.67H71.29v-1.67Zm3.79,0h4v1.67h-4v-1.67Zm4.41,0H82.9v1.67H79.49v-1.67Zm3.41,1.95v2H79.49v-2Zm0,2.3v2H79.49v-2Zm0,2.3v2H79.49v-2Zm0,2.29V132H79.49v-1.68ZM79.11,132h-4v-1.68h4V132Zm-4.41,0H71.29v-1.68H74.7V132Zm-3.41-2v-2H74.7v2Zm0-2.29v-2H74.7v2Zm0-2.3v-2H74.7v2Zm3.79-2v2h4v-2Zm0,2.3v2h4v-2Zm0,2.3v2h4v-2Z" style="fill:#9a7374;fill-rule:evenodd"/><path d="M85,121.43h3.42v1.67H85v-1.67Zm3.79,0h4v1.67h-4v-1.67Zm4.42,0h3.41v1.67H93.2v-1.67Zm3.41,1.95v2H93.2v-2Zm0,2.3v2H93.2v-2Zm0,2.3v2H93.2v-2Zm0,2.29V132H93.2v-1.68ZM92.82,132h-4v-1.68h4V132Zm-4.41,0H85v-1.68h3.42V132ZM85,130v-2h3.42v2Zm0-2.29v-2h3.42v2Zm0-2.3v-2h3.42v2Zm3.79-2v2h4v-2Zm0,2.3v2h4v-2Zm0,2.3v2h4v-2Z" style="fill:#9a7374;fill-rule:evenodd"/><path d="M29.8,108.56l-3.35-1.07-1.08-.7c-6,3.29-16.15,8-23.54,8.8a11.1,11.1,0,0,0-1.81-.2c-.19.09,1.4,1.78,1.4,1.78a43,43,0,0,0,5.31.43c.6-.16,11.51-2.91,16.76-5.48S29.8,108.56,29.8,108.56Z" style="fill:#6d6e70;fill-rule:evenodd"/><path d="M26.45,107.49c-3.84,3.94-21.35,9.55-24.9,9.66-1.65,0,9.69,3.12,21.67,3,12.66-.15,32.77,0,39.11.11h0c6.33-.07,26.44-.26,39.1-.11,12,.15,23.32-2.92,21.67-3-3.55-.11-21-5.72-24.9-9.66l-35.87-.21h0Z" style="fill:#ca2d36;fill-rule:evenodd"/><rect x="19.12" y="120.5" width="2.25" height="18.17" style="fill:#ca2d36"/><rect x="20.24" y="120.5" width="1.12" height="18.17" style="fill:#b4262b"/><rect x="33.15" y="120.53" width="2.25" height="18.17" style="fill:#ca2d36"/><rect x="34.27" y="120.53" width="1.12" height="18.17" style="fill:#b4262b"/><rect x="47.17" y="120.56" width="2.25" height="18.17" style="fill:#ca2d36"/><rect x="48.3" y="120.56" width="1.12" height="18.17" style="fill:#b4262b"/><rect x="75.23" y="120.61" width="2.25" height="18.17" style="fill:#ca2d36"/><rect x="76.35" y="120.61" width="1.12" height="18.17" style="fill:#b4262b"/><rect x="89.26" y="120.64" width="2.25" height="18.17" style="fill:#ca2d36"/><rect x="90.38" y="120.64" width="1.12" height="18.17" style="fill:#b4262b"/><rect x="103.28" y="120.67" width="2.25" height="18.17" style="fill:#ca2d36"/><rect x="104.41" y="120.67" width="1.12" height="18.17" style="fill:#b4262b"/><rect x="19.12" y="119.13" width="86.41" height="2.02" style="fill:#404041"/><path d="M23.22,118.11a86.74,86.74,0,0,1-17.64-1.74,22,22,0,0,1-4,.78c-1.65,0,9.69,3.12,21.67,3,12.66-.15,32.77,0,39.11.11s26.44-.26,39.1-.11c12,.15,23.32-2.92,21.67-3a22.11,22.11,0,0,1-4-.78,86.74,86.74,0,0,1-17.64,1.74c-12.66-.16-32.77,0-39.1.11S35.88,118,23.22,118.11Z" style="fill:#b4262b;fill-rule:evenodd"/><rect x="57.12" y="122.57" width="10.71" height="16.1" style="fill:#404041"/><path d="M87.78,86.12l2.63-1.07.84-.69c4.67,3.29,12.64,8,18.43,8.79a6.25,6.25,0,0,1,1.41-.19c.15.08-1.09,1.77-1.09,1.77a26.56,26.56,0,0,1-4.16.44c-.47-.17-9-2.91-13.12-5.49S87.78,86.12,87.78,86.12Z" style="fill:#6d6e70;fill-rule:evenodd"/><path d="M36.87,86.12l-2.63-1.07-.84-.69c-4.67,3.29-12.64,8-18.43,8.79A6.25,6.25,0,0,0,13.56,93c-.15.08,1.09,1.77,1.09,1.77a26.56,26.56,0,0,0,4.16.44c.47-.17,9-2.91,13.12-5.49S36.87,86.12,36.87,86.12Z" style="fill:#6d6e70;fill-rule:evenodd"/><path d="M34.24,85.05c-3,3.94-16.7,9.55-19.48,9.66-1.29.06,7.58,3.12,17,3,9.91-.15,25.64,0,30.61.12h0c5-.07,20.69-.27,30.6-.12,9.38.15,18.25-2.91,17-3-2.77-.11-16.48-5.72-19.48-9.66l-28.08-.21h0Z" style="fill:#ca2d36;fill-rule:evenodd"/><rect x="28.51" y="96.69" width="67.63" height="2.02" style="fill:#404041"/><path d="M31.72,95.67a53.79,53.79,0,0,1-13.81-1.74,13.93,13.93,0,0,1-3.15.78c-1.29.06,7.58,3.12,17,3,9.91-.15,25.64,0,30.61.12s20.69-.27,30.6-.12c9.38.15,18.25-2.91,17-3a14.05,14.05,0,0,1-3.15-.78,53.79,53.79,0,0,1-13.81,1.74c-9.91-.16-25.64,0-30.6.11S41.63,95.51,31.72,95.67Z" style="fill:#b4262b;fill-rule:evenodd"/><path d="M87.78,61.94l2.63-1.07.84-.7c4.67,3.29,12.64,8,18.43,8.79a6.25,6.25,0,0,1,1.41-.19c.15.08-1.09,1.77-1.09,1.77a26.56,26.56,0,0,1-4.16.44c-.47-.17-9-2.91-13.12-5.49S87.78,61.94,87.78,61.94Z" style="fill:#6d6e70;fill-rule:evenodd"/><path d="M36.87,61.94l-2.63-1.07-.84-.7C28.73,63.46,20.76,68.22,15,69a6.25,6.25,0,0,0-1.41-.19c-.15.08,1.09,1.77,1.09,1.77a26.56,26.56,0,0,0,4.16.44c.47-.17,9-2.91,13.12-5.49S36.87,61.94,36.87,61.94Z" style="fill:#6d6e70;fill-rule:evenodd"/><path d="M34.24,60.87c-3,3.93-16.7,9.54-19.48,9.65-1.29.06,7.58,3.12,17,3,9.91-.16,25.64,0,30.61.11h0c5-.07,20.69-.27,30.6-.11,9.38.14,18.25-2.92,17-3-2.77-.11-16.48-5.72-19.48-9.65l-28.08-.22h0Z" style="fill:#ca2d36;fill-rule:evenodd"/><rect x="28.51" y="72.5" width="67.63" height="2.02" style="fill:#404041"/><path d="M31.72,71.48a53.79,53.79,0,0,1-13.81-1.74,13.93,13.93,0,0,1-3.15.78c-1.29.06,7.58,3.12,17,3,9.91-.16,25.64,0,30.61.11s20.69-.27,30.6-.11c9.38.14,18.25-2.92,17-3a14.05,14.05,0,0,1-3.15-.78,53.79,53.79,0,0,1-13.81,1.74c-9.91-.15-25.64,0-30.6.11S41.63,71.33,31.72,71.48Z" style="fill:#b4262b;fill-rule:evenodd"/><path d="M87.78,37.75l2.63-1.07.84-.7c4.67,3.29,12.64,8.05,18.43,8.8a6.83,6.83,0,0,1,1.41-.2c.15.08-1.09,1.78-1.09,1.78a26.68,26.68,0,0,1-4.16.43c-.47-.17-9-2.91-13.12-5.49S87.78,37.75,87.78,37.75Z" style="fill:#6d6e70;fill-rule:evenodd"/><path d="M36.87,37.75l-2.63-1.07L33.4,36C28.73,39.27,20.76,44,15,44.78a6.83,6.83,0,0,0-1.41-.2c-.15.08,1.09,1.78,1.09,1.78a26.68,26.68,0,0,0,4.16.43c.47-.17,9-2.91,13.12-5.49S36.87,37.75,36.87,37.75Z" style="fill:#6d6e70;fill-rule:evenodd"/><path d="M34.24,36.68c-3,3.93-16.7,9.54-19.48,9.66-1.29,0,7.58,3.11,17,3,9.91-.16,25.64,0,30.61.11h0c5-.07,20.69-.27,30.6-.11,9.38.14,18.25-2.92,17-3-2.77-.12-16.48-5.73-19.48-9.66l-28.08-.21h0Z" style="fill:#ca2d36;fill-rule:evenodd"/><rect x="28.51" y="48.32" width="67.63" height="2.02" style="fill:#404041"/><path d="M31.72,47.29a52.92,52.92,0,0,1-13.81-1.74,14.1,14.1,0,0,1-3.15.79c-1.29,0,7.58,3.11,17,3,9.91-.16,25.64,0,30.61.11s20.69-.27,30.6-.11c9.38.14,18.25-2.92,17-3a14.23,14.23,0,0,1-3.15-.79,52.92,52.92,0,0,1-13.81,1.74c-9.91-.15-25.64.05-30.6.12S41.63,47.14,31.72,47.29Z" style="fill:#b4262b;fill-rule:evenodd"/><rect x="14.12" y="138.67" width="94.71" height="2.96" style="fill:#6d6e70"/><path d="M62.33,10.86C58.46,17,46.87,23.3,39.43,25.7l10.11.4s-1.1,1.51-7.74,4.63-15.24,3.78-15.24,3.78l.51.12H97.59l.5-.12s-8.6-.66-15.24-3.78-7.74-4.63-7.74-4.63l10.11-.4C77.78,23.3,66.19,17,62.33,10.86Z" style="fill:#ca2d36;fill-rule:evenodd"/><path d="M37.27,32.45a56.28,56.28,0,0,1-10.71,2.06l.51.12H97.59l.5-.12a56.28,56.28,0,0,1-10.71-2.06Z" style="fill:#b4262b;fill-rule:evenodd"/><path d="M46,23a55.71,55.71,0,0,1-6.58,2.66c17.52.7,28.27.7,45.79,0A56.41,56.41,0,0,1,78.64,23Z" style="fill:#b4262b;fill-rule:evenodd"/><polygon points="62.22 0 62.99 5.38 63.76 10.75 62.22 10.75 60.69 10.75 61.45 5.38 62.22 0" style="fill:#6d6e70;fill-rule:evenodd"/><rect x="59.62" y="10.5" width="5.2" height="0.87" style="fill:#b4262b"/></g></g></svg>