<svg xmlns="http://www.w3.org/2000/svg" viewBox="0 0 108.71 226"><g id="Layer_2" data-name="Layer 2"><g id="OBJECTS"><path d="M70.83,73.9C72.06,76.16,81,88.43,83.62,91.09c3.68,3.71-.55,12.48-7.18,5.21-.24-.26-.59-.48-.9-.79-4.08-4.19-11-16.29-11-16.29Z" style="fill:#69c8ce;fill-rule:evenodd"/><path d="M83.39,98.32c-1.51,1.27-4,1.22-7-2-.24-.26-.59-.48-.9-.79-3.31-3.4-8.47-12-10.3-15.13l2.14-1.67C68,78.66,83.35,98.27,83.39,98.32Z" style="fill:#53afb5;fill-rule:evenodd"/><polygon points="43.26 68.16 66.92 68.19 74.11 160.11 34.62 160.16 43.26 68.16" style="fill:#3cb1bd;fill-rule:evenodd"/><path d="M69.25,123.26c1,.91,7,30.94,7,30.94l-46.16,5.88Z" style="fill:#69c8ce;fill-rule:evenodd"/><path d="M53.86,114.63s18-16.9,16.83-16.81S75,127.44,75,127.44L38.32,160.22l5.07-33.87Z" style="fill:#69c8ce;fill-rule:evenodd"/><polygon points="40.66 135.8 30.13 160.08 39.1 160.24 70.69 97.82 40.66 135.8" style="fill:#3cb1bd;fill-rule:evenodd"/><polygon points="68.41 83.88 71.13 97.13 30.13 160.08 33.09 150.81 39.01 121.67 68.41 83.88" style="fill:#69c8ce;fill-rule:evenodd"/><polygon points="64.65 74.02 74.88 76.36 37.62 126.83 38.16 119.02 64.65 74.02" style="fill:#3cb1bd;fill-rule:evenodd"/><polygon points="38.16 119.02 74.88 76.36 67.17 68.16 59.08 66.57 54.4 66.58 48.85 67.01 39.32 101.92 38.16 119.02" style="fill:#69c8ce;fill-rule:evenodd"/><path d="M63.11,67.36l-4-.79H54.4l-3.08.24a6,6,0,0,0-.07,1,5.94,5.94,0,1,0,11.87,0C63.12,67.63,63.12,67.5,63.11,67.36Z" style="fill:#63b9bc;fill-rule:evenodd"/><path d="M35.72,19.09C41.2,14.82,36.49,5,31.87,0c.47,2.69.78,5-.34,7.55.38-.7-2.12-3.72-2.82-4.14.8,5.09-5.2,14,2.14,16.06A6.82,6.82,0,0,0,35.72,19.09Z" style="fill:#dd6b26;fill-rule:evenodd"/><path d="M31.91.2c.44,2.6.72,4.85-.38,7.35.31-.57-1.27-2.66-2.26-3.65q-.11.3-.24.6c.11-.2,0-.59-.27-1.06l-.05,0c.56,3.55-2.2,9-1.41,12.64a7.49,7.49,0,0,0,1.05.38A6.79,6.79,0,0,0,33.22,16C37.68,12.57,35.4,5.44,31.91.2Z" style="fill:#f48120;fill-rule:evenodd"/><path d="M34.59,28.64c0,8.92.19,29.82,14.25,40.45l-6.22,7.27c-9.26-13.26-14-23-12.82-47.7Z" style="fill:#69c8ce;fill-rule:evenodd"/><path d="M45.73,72.73l-3.11,3.63c-9.26-13.26-14-23-12.82-47.7h2.25C32.48,50.42,32.91,54.27,45.73,72.73Z" style="fill:#53afb5;fill-rule:evenodd"/><rect x="35.15" y="25.01" width="1.81" height="5.1" rx="0.52" style="fill:#50babd"/><rect x="30.6" y="18.5" width="2.93" height="18.38" rx="1.2" style="fill:#008895"/><path d="M29.48,24H35l2.74-3.78H26.75L29.48,24Z" style="fill:#008895;fill-rule:evenodd"/><rect x="28.39" y="23.27" width="7.25" height="10.2" rx="2.07" style="fill:#58c4c8"/><path d="M30.46,23.27h3.11a2.2,2.2,0,0,1,.73.13,1.62,1.62,0,0,1,0,.22v6.06a2.07,2.07,0,0,1-2.06,2.07H29.13a2,2,0,0,1-.73-.14,1.48,1.48,0,0,1,0-.21V25.34A2.07,2.07,0,0,1,30.46,23.27Z" style="fill:#65c7ce;fill-rule:evenodd"/><rect x="24.68" y="18.31" width="14.77" height="2.97" rx="1.48" style="fill:#00a2b2"/><path d="M39.44,19.83A1.49,1.49,0,0,1,38,21.28H26.16a1.49,1.49,0,0,1-1.48-1.45Z" style="fill:#008895;fill-rule:evenodd"/><polygon points="37.42 52.74 43.98 50.86 50.53 48.99 50.8 50.77 51.06 52.55 44.24 52.64 37.42 52.74" style="fill:#00747d;fill-rule:evenodd"/><polygon points="76.71 52.74 70.16 50.86 63.6 48.99 63.34 50.77 63.08 52.55 69.89 52.64 76.71 52.74" style="fill:#00747d;fill-rule:evenodd"/><path d="M56.75,61.91h0c-5,.05-8.17,1.19-8.62-6.26s3.53-9.48,8.62-9.55h0c5.08.07,9.07,2.1,8.62,9.55S61.8,62,56.75,61.91Z" style="fill:#0098a3;fill-rule:evenodd"/><path d="M56.93,63.18h0a3.59,3.59,0,0,1,3.58,3.58v1.6a3.59,3.59,0,0,1-3.58,3.58h0a3.59,3.59,0,0,1-3.58-3.58v-1.6A3.59,3.59,0,0,1,56.93,63.18Z" style="fill:#5aadb1;fill-rule:evenodd"/><path d="M60.51,69.14V66.65a12.62,12.62,0,0,1-3.58.61v4.68C58.9,71.94,60.51,70.68,60.51,69.14Z" style="fill:#519fa3;fill-rule:evenodd"/><path d="M56.75,46.1c4.57,0,8.28,4.82,8.28,10.78s-3.86,10.63-8.28,10.78-8.28-4.83-8.28-10.78S52.17,46.1,56.75,46.1Z" style="fill:#69c8ce;fill-rule:evenodd"/><path d="M56.75,46.1c4.57,0,8.28,4.82,8.28,10.78s-3.86,10.63-8.28,10.78h-.07V46.1Z" style="fill:#5ebcc1;fill-rule:evenodd"/><path d="M56.68,51c1.65,3.79,6.23,7.19,8.28,7.28,0-.45-.12,5,.07-1.37S62.57,46.47,56.89,46.1c-.31,0-9,.88-8.42,10.78,0,.46,0,.92.06,1.37C50.59,58.16,55,54.76,56.68,51Z" style="fill:#0098a3;fill-rule:evenodd"/><path d="M48.11,52.18a25,25,0,0,1,.32-4.41c-.08-1.46,4.14-2.14,8.25-2.12h0c4.11,0,8.32.66,8.25,2.12a24.49,24.49,0,0,1,.31,4.41,17,17,0,0,0-8.56-2.11h0A17,17,0,0,0,48.11,52.18Z" style="fill:#00808a;fill-rule:evenodd"/><path d="M48.11,52.18c0-.45,0-.64,0-1.06,3-2.58,14.22-2.5,17.13.09,0,.41,0,.52,0,1a17,17,0,0,0-8.56-2.11h0A17,17,0,0,0,48.11,52.18Z" style="fill:#007982;fill-rule:evenodd"/><polygon points="56.68 33.38 57.81 39.95 58.48 46.9 56.6 47.88 54.88 46.9 55.62 39.36 56.68 33.38" style="fill:#00747d;fill-rule:evenodd"/><polygon points="45.33 35.88 50.03 40.91 54.29 46.16 53.18 47.98 51.29 48.15 47.7 41.31 45.33 35.88" style="fill:#00747d;fill-rule:evenodd"/><polygon points="68.31 35.77 64.53 39.79 59.35 46.06 60.21 47.58 62.36 48.04 65.28 42.5 68.31 35.77" style="fill:#00747d;fill-rule:evenodd"/><polygon points="37.38 43.5 44.37 45.16 50.56 46.99 50.44 49.09 49.18 50.32 42.31 46.56 37.38 43.5" style="fill:#00747d;fill-rule:evenodd"/><polygon points="76.27 43.39 70.47 44.74 63.09 46.88 63.07 48.68 64.46 50.21 70.28 47.07 76.27 43.39" style="fill:#00747d;fill-rule:evenodd"/><polygon points="51.04 66.84 42.11 61.88 30.38 76.01 42.09 88.36 51.04 66.84" style="fill:#69c8ce;fill-rule:evenodd"/><polygon points="51.24 66.83 38.74 110.47 37.37 83.38 51.24 66.83" style="fill:#3cb1bd;fill-rule:evenodd"/><polygon points="79.78 73.39 90.64 80.18 72.9 107.6 62.49 99.42 79.78 73.39" style="fill:#00808a;fill-rule:evenodd"/><polygon points="87.79 78.4 90.64 80.18 72.9 107.6 70.32 105.57 87.79 78.4" style="fill:#00747d;fill-rule:evenodd"/><rect x="76.46" y="91.42" width="10.2" height="7.25" rx="2.07" transform="matrix(0.53, -0.84, 0.84, 0.53, -42.37, 113.12)" style="fill:#65c7ce"/><polygon points="70.06 71.24 67.17 68.16 45.11 102.13 56.14 88.48 67.32 74.63 67.65 74.23 70.06 71.24" style="fill:#3cb1bd;fill-rule:evenodd"/><polygon points="75.58 129.71 73.69 120.33 38.32 160.22 75.58 129.71" style="fill:#3cb1bd;fill-rule:evenodd"/><polygon points="42.11 61.88 40.12 64.28 37.15 67.86 30.38 76.01 38.17 69.6 41.67 66.72 44.18 64.65 45.36 63.69 42.11 61.88" style="fill:#3cb1bd;fill-rule:evenodd"/><rect x="29.37" y="163.34" width="48.75" height="47.19" style="fill:#4fa1a5"/><rect x="31.71" y="162.58" width="44.07" height="49.61" style="fill:#53afb5"/><rect x="24.76" y="171.81" width="57.96" height="6.56" style="fill:#69c8ce"/><rect x="24.76" y="175.09" width="57.96" height="3.28" style="fill:#61b9bc"/><rect x="19.39" y="208.5" width="69.93" height="8.75" style="fill:#69c8ce"/><rect x="19.39" y="212.87" width="69.93" height="4.38" style="fill:#61b9bc"/><rect x="40.26" y="181.91" width="5.86" height="15.24" style="fill:#2e9298"/><rect x="50.81" y="181.91" width="5.86" height="15.24" style="fill:#2e9298"/><rect x="61.36" y="181.91" width="5.86" height="15.24" style="fill:#2e9298"/><rect x="27.75" y="160.11" width="51.99" height="4.38" style="fill:#69c8ce"/><rect y="217.25" width="108.71" height="8.75" style="fill:#69c8ce"/><rect y="221.63" width="108.71" height="4.38" style="fill:#61b9bc"/></g></g></svg>