<svg xmlns="http://www.w3.org/2000/svg" viewBox="0 0 86.57 202.16"><g id="Layer_2" data-name="Layer 2"><g id="OBJECTS"><rect x="43.89" y="-8.56" width="21.69" height="49.6" transform="translate(31.52 68.4) rotate(-82.53)" style="fill:#d0d2d3"/><rect x="-44.72" y="80.79" width="173.81" height="62.29" transform="translate(-74.29 139.21) rotate(-82.53)" style="fill:#d0d2d3"/><path d="M23,21.21l61.76,8.1a2.08,2.08,0,0,1,1.79,2.32h0a2.08,2.08,0,0,1-2.32,1.79l-61.77-8.1A2.08,2.08,0,0,1,20.68,23h0A2.06,2.06,0,0,1,23,21.21Z" style="fill:#e6e7e8;fill-rule:evenodd"/><path d="M86.56,31.44a1.21,1.21,0,0,1,0,.19h0a2.28,2.28,0,0,1-2.68,1.74l-61.06-8A2.27,2.27,0,0,1,20.68,23h0a1.25,1.25,0,0,1,0-.19Z" style="fill:#bbbdbf;fill-rule:evenodd"/><path d="M30.35,0,82.48,6.86a2.07,2.07,0,0,1,1.79,2.32h0A2.09,2.09,0,0,1,82,11L29.81,4.13A2.08,2.08,0,0,1,28,1.8h0A2.07,2.07,0,0,1,30.35,0Z" style="fill:#e6e7e8;fill-rule:evenodd"/><path d="M84.29,9c0,.06,0,.13,0,.19h0A2.09,2.09,0,0,1,82,11L29.81,4.13A2.08,2.08,0,0,1,28,1.8h0l0-.19Z" style="fill:#bbbdbf;fill-rule:evenodd"/><path d="M13.93,90.37l61.76,8.11a2.08,2.08,0,0,1,1.79,2.32h0a2.09,2.09,0,0,1-2.33,1.79L13.39,94.48a2.07,2.07,0,0,1-1.79-2.32h0A2.09,2.09,0,0,1,13.93,90.37Z" style="fill:#e6e7e8;fill-rule:evenodd"/><path d="M77.49,100.61c0,.06,0,.13,0,.19h0a2.29,2.29,0,0,1-2.68,1.74l-61.06-8a2.29,2.29,0,0,1-2.14-2.37h0a1.06,1.06,0,0,1,0-.19Z" style="fill:#bbbdbf;fill-rule:evenodd"/><path d="M9.39,125l61.76,8.1a2.08,2.08,0,0,1,1.79,2.32h0a2.08,2.08,0,0,1-2.32,1.79l-61.77-8.1a2.08,2.08,0,0,1-1.78-2.33h0A2.06,2.06,0,0,1,9.39,125Z" style="fill:#e6e7e8;fill-rule:evenodd"/><path d="M73,135.19a1.21,1.21,0,0,1,0,.19h0a2.28,2.28,0,0,1-2.68,1.74l-61.06-8a2.27,2.27,0,0,1-2.13-2.37h0l0-.19Z" style="fill:#bbbdbf;fill-rule:evenodd"/><path d="M4.85,159.54l61.77,8.1A2.08,2.08,0,0,1,68.4,170h0a2.07,2.07,0,0,1-2.32,1.78l-61.76-8.1a2.09,2.09,0,0,1-1.79-2.33h0A2.07,2.07,0,0,1,4.85,159.54Z" style="fill:#e6e7e8;fill-rule:evenodd"/><path d="M68.42,169.77a1.36,1.36,0,0,1,0,.2h0a2.26,2.26,0,0,1-2.67,1.73l-61.06-8a2.27,2.27,0,0,1-2.14-2.37h0a1.62,1.62,0,0,1,0-.19Z" style="fill:#bbbdbf;fill-rule:evenodd"/><path d="M70.26,16.18l-1.45,11,7.94,1,1.44-11a4,4,0,1,0-7.93-1Z" style="fill:#6d6e70;fill-rule:evenodd"/><path d="M60.65,14.92,59.2,26l7.94,1,1.45-11a4,4,0,1,0-7.94-1Z" style="fill:#6d6e70;fill-rule:evenodd"/><path d="M51,13.66l-1.45,11,7.94,1L59,14.7a4,4,0,1,0-7.94-1Z" style="fill:#6d6e70;fill-rule:evenodd"/><path d="M41.43,12.4,40,23.44l7.94,1,1.45-11a4,4,0,1,0-7.94-1Z" style="fill:#6d6e70;fill-rule:evenodd"/><path d="M31.82,11.14l-1.44,11,7.93,1,1.45-11a4,4,0,1,0-7.94-1Z" style="fill:#6d6e70;fill-rule:evenodd"/><path d="M70.26,16.18l-1.45,11L75,28l1.45-11a4.16,4.16,0,0,0-2.57-4.44A4.14,4.14,0,0,0,70.26,16.18Z" style="fill:#929497;fill-rule:evenodd"/><path d="M67.08,27h.06l1.45-11a4.36,4.36,0,0,0,0-.51c0,.16-.07.33-.1.5Z" style="fill:#929497;fill-rule:evenodd"/><path d="M60.65,14.92,59.2,26l6.2.81,1.45-11a4.16,4.16,0,0,0-2.57-4.44A4.15,4.15,0,0,0,60.65,14.92Z" style="fill:#929497;fill-rule:evenodd"/><path d="M57.47,25.73h.06L59,14.7a4.53,4.53,0,0,0,0-.52,4.54,4.54,0,0,0-.09.51Z" style="fill:#929497;fill-rule:evenodd"/><path d="M51,13.66l-1.45,11,6.21.81,1.44-11A4.14,4.14,0,0,0,54.67,10,4.15,4.15,0,0,0,51,13.66Z" style="fill:#929497;fill-rule:evenodd"/><path d="M47.86,24.47h.06l1.45-11c0-.17,0-.35,0-.52a3.06,3.06,0,0,0-.1.51Z" style="fill:#929497;fill-rule:evenodd"/><path d="M41.43,12.4,40,23.44l6.21.81,1.44-11a4.14,4.14,0,0,0-2.57-4.44A4.15,4.15,0,0,0,41.43,12.4Z" style="fill:#929497;fill-rule:evenodd"/><path d="M38.25,23.21h.06l1.45-11c0-.17,0-.35,0-.52a3.06,3.06,0,0,0-.1.51Z" style="fill:#929497;fill-rule:evenodd"/><path d="M31.82,11.14l-1.44,11,6.2.81L38,12a4.16,4.16,0,0,0-2.58-4.44A4.15,4.15,0,0,0,31.82,11.14Z" style="fill:#929497;fill-rule:evenodd"/><path d="M18.46,55.79l61.77,8.1A2.08,2.08,0,0,1,82,66.22h0A2.07,2.07,0,0,1,79.69,68L17.92,59.9a2.07,2.07,0,0,1-1.78-2.32h0A2.08,2.08,0,0,1,18.46,55.79Z" style="fill:#e6e7e8;fill-rule:evenodd"/><path d="M82,66a1.36,1.36,0,0,1,0,.2h0A2.28,2.28,0,0,1,79.34,68L18.28,60a2.28,2.28,0,0,1-2.14-2.37h0a1.06,1.06,0,0,1,0-.19Z" style="fill:#bbbdbf;fill-rule:evenodd"/><path d="M31.42,34.41a4.11,4.11,0,1,0-8.15-1.06L20.29,56l8.15,1.07Z" style="fill:#6d6e70;fill-rule:evenodd"/><path d="M41.28,35.71a4.11,4.11,0,1,0-8.15-1.07l-3,22.69,8.14,1.06Z" style="fill:#6d6e70;fill-rule:evenodd"/><path d="M51.14,37A4.11,4.11,0,1,0,43,35.93L40,58.62l8.15,1.07Z" style="fill:#6d6e70;fill-rule:evenodd"/><path d="M61,38.3a4.11,4.11,0,1,0-8.14-1.07l-3,22.68L58,61Z" style="fill:#6d6e70;fill-rule:evenodd"/><path d="M70.87,39.59a4.11,4.11,0,1,0-8.15-1.07l-3,22.69,8.14,1.07Z" style="fill:#6d6e70;fill-rule:evenodd"/><path d="M80.73,40.88a4.1,4.1,0,1,0-8.14-1.06l-3,22.68,8.15,1.07Z" style="fill:#6d6e70;fill-rule:evenodd"/><path d="M26.93,29.78a4.13,4.13,0,0,0-3.66,3.57L20.29,56l6.29.83,3-22.69A4.12,4.12,0,0,0,26.93,29.78Z" style="fill:#929497;fill-rule:evenodd"/><path d="M31.42,34.41a4,4,0,0,0,0-.77,3.66,3.66,0,0,0-.17.76l-3,22.68.15,0Z" style="fill:#929497;fill-rule:evenodd"/><path d="M36.8,31.07a4.15,4.15,0,0,0-3.67,3.57l-3,22.69,6.28.82,3-22.69A4.14,4.14,0,0,0,36.8,31.07Z" style="fill:#929497;fill-rule:evenodd"/><path d="M41.28,35.71a5.09,5.09,0,0,0,0-.78,4.94,4.94,0,0,0-.18.76l-3,22.68.14,0Z" style="fill:#929497;fill-rule:evenodd"/><path d="M46.66,32.37A4.13,4.13,0,0,0,43,35.93L40,58.62l6.28.82,3-22.68A4.13,4.13,0,0,0,46.66,32.37Z" style="fill:#929497;fill-rule:evenodd"/><path d="M51.14,37a4,4,0,0,0,0-.77A3.72,3.72,0,0,0,51,37L48,59.67l.15,0Z" style="fill:#929497;fill-rule:evenodd"/><path d="M56.52,33.66a4.13,4.13,0,0,0-3.66,3.57l-3,22.68,6.29.83,3-22.69A4.13,4.13,0,0,0,56.52,33.66Z" style="fill:#929497;fill-rule:evenodd"/><path d="M61,38.3a3.42,3.42,0,0,0,0-.78,3.81,3.81,0,0,0-.17.76L57.88,61,58,61Z" style="fill:#929497;fill-rule:evenodd"/><path d="M66.39,35a4.11,4.11,0,0,0-3.67,3.56l-3,22.69L66,62l3-22.68A4.13,4.13,0,0,0,66.39,35Z" style="fill:#929497;fill-rule:evenodd"/><path d="M70.87,39.59a5,5,0,0,0,0-.77,4.56,4.56,0,0,0-.18.75l-3,22.69.14,0Z" style="fill:#929497;fill-rule:evenodd"/><path d="M76.25,36.25a4.13,4.13,0,0,0-3.66,3.57l-3,22.68,6.28.82,3-22.68A4.13,4.13,0,0,0,76.25,36.25Z" style="fill:#929497;fill-rule:evenodd"/><path d="M26.88,69a4.11,4.11,0,1,0-8.15-1.07l-3,22.68,8.14,1.07Z" style="fill:#6d6e70;fill-rule:evenodd"/><path d="M36.74,70.29a4.11,4.11,0,1,0-8.14-1.07l-3,22.69L33.77,93Z" style="fill:#6d6e70;fill-rule:evenodd"/><path d="M46.61,71.59a4.11,4.11,0,1,0-8.15-1.07l-3,22.68,8.15,1.07Z" style="fill:#6d6e70;fill-rule:evenodd"/><path d="M56.47,72.88a4.11,4.11,0,1,0-8.15-1.07l-3,22.69,8.14,1.06Z" style="fill:#6d6e70;fill-rule:evenodd"/><path d="M66.33,74.17a4.11,4.11,0,1,0-8.14-1.07l-3,22.69,8.15,1.07Z" style="fill:#6d6e70;fill-rule:evenodd"/><path d="M76.2,75.47a4.11,4.11,0,1,0-8.15-1.07l-3,22.68,8.15,1.07Z" style="fill:#6d6e70;fill-rule:evenodd"/><path d="M22.4,64.36a4.15,4.15,0,0,0-3.67,3.57l-3,22.68,6.28.83,3-22.69A4.14,4.14,0,0,0,22.4,64.36Z" style="fill:#929497;fill-rule:evenodd"/><path d="M26.88,69a5.09,5.09,0,0,0,0-.78,4.68,4.68,0,0,0-.18.76l-3,22.68.14,0Z" style="fill:#929497;fill-rule:evenodd"/><path d="M32.26,65.66a4.13,4.13,0,0,0-3.66,3.56l-3,22.69,6.28.82,3-22.68A4.13,4.13,0,0,0,32.26,65.66Z" style="fill:#929497;fill-rule:evenodd"/><path d="M36.74,70.29a4,4,0,0,0,0-.77,3.72,3.72,0,0,0-.17.75L33.62,93l.15,0Z" style="fill:#929497;fill-rule:evenodd"/><path d="M42.12,67a4.13,4.13,0,0,0-3.66,3.57l-3,22.68,6.29.83,3-22.69A4.12,4.12,0,0,0,42.12,67Z" style="fill:#929497;fill-rule:evenodd"/><path d="M46.61,71.59a4.11,4.11,0,0,0,0-.78,3.66,3.66,0,0,0-.17.76l-3,22.68.15,0Z" style="fill:#929497;fill-rule:evenodd"/><path d="M52,68.24a4.15,4.15,0,0,0-3.67,3.57l-3,22.69,6.28.82,3-22.69A4.14,4.14,0,0,0,52,68.24Z" style="fill:#929497;fill-rule:evenodd"/><path d="M56.47,72.88a5.09,5.09,0,0,0,0-.78,4.94,4.94,0,0,0-.18.76l-3,22.69h.14Z" style="fill:#929497;fill-rule:evenodd"/><path d="M61.85,69.54a4.13,4.13,0,0,0-3.66,3.56l-3,22.69,6.28.82,3-22.68A4.13,4.13,0,0,0,61.85,69.54Z" style="fill:#929497;fill-rule:evenodd"/><path d="M66.33,74.17a4,4,0,0,0,0-.77,3.72,3.72,0,0,0-.17.75l-3,22.69.15,0Z" style="fill:#929497;fill-rule:evenodd"/><path d="M71.71,70.83a4.13,4.13,0,0,0-3.66,3.57l-3,22.68,6.29.83,3-22.69A4.13,4.13,0,0,0,71.71,70.83Z" style="fill:#929497;fill-rule:evenodd"/><path d="M22.34,103.58a4.11,4.11,0,1,0-8.14-1.07l-3,22.69,8.15,1.07Z" style="fill:#6d6e70;fill-rule:evenodd"/><path d="M32.21,104.87a4.11,4.11,0,1,0-8.15-1.06l-3,22.68,8.15,1.07Z" style="fill:#6d6e70;fill-rule:evenodd"/><path d="M42.07,106.17a4.11,4.11,0,1,0-8.15-1.07l-3,22.68,8.14,1.07Z" style="fill:#6d6e70;fill-rule:evenodd"/><path d="M51.93,107.46a4.11,4.11,0,1,0-8.14-1.07l-3,22.69L49,130.15Z" style="fill:#6d6e70;fill-rule:evenodd"/><path d="M61.8,108.76a4.11,4.11,0,1,0-8.15-1.07l-3,22.68,8.15,1.07Z" style="fill:#6d6e70;fill-rule:evenodd"/><path d="M71.66,110.05A4.11,4.11,0,1,0,63.51,109l-3,22.69,8.14,1.06Z" style="fill:#6d6e70;fill-rule:evenodd"/><path d="M17.86,99a4.12,4.12,0,0,0-3.66,3.56l-3,22.69,6.28.82,3-22.68A4.13,4.13,0,0,0,17.86,99Z" style="fill:#929497;fill-rule:evenodd"/><path d="M22.34,103.58a3.33,3.33,0,0,0,0-.77,3.72,3.72,0,0,0-.17.75l-3,22.69.15,0Z" style="fill:#929497;fill-rule:evenodd"/><path d="M27.72,100.24a4.13,4.13,0,0,0-3.66,3.57l-3,22.68,6.29.83,3-22.69A4.12,4.12,0,0,0,27.72,100.24Z" style="fill:#929497;fill-rule:evenodd"/><path d="M32.21,104.87a4,4,0,0,0,0-.77,3.66,3.66,0,0,0-.17.76l-3,22.68.15,0Z" style="fill:#929497;fill-rule:evenodd"/><path d="M37.59,101.53a4.15,4.15,0,0,0-3.67,3.57l-3,22.68,6.28.83,3-22.69A4.14,4.14,0,0,0,37.59,101.53Z" style="fill:#929497;fill-rule:evenodd"/><path d="M42.07,106.17a5.09,5.09,0,0,0,0-.78,4.68,4.68,0,0,0-.18.76l-3,22.68.14,0Z" style="fill:#929497;fill-rule:evenodd"/><path d="M47.45,102.83a4.13,4.13,0,0,0-3.66,3.56l-3,22.69,6.28.82,3-22.68A4.13,4.13,0,0,0,47.45,102.83Z" style="fill:#929497;fill-rule:evenodd"/><path d="M51.93,107.46a4,4,0,0,0,0-.77,3.72,3.72,0,0,0-.17.75l-3,22.69.15,0Z" style="fill:#929497;fill-rule:evenodd"/><path d="M57.31,104.12a4.13,4.13,0,0,0-3.66,3.57l-3,22.68,6.29.83,3-22.69A4.12,4.12,0,0,0,57.31,104.12Z" style="fill:#929497;fill-rule:evenodd"/><path d="M61.8,108.76a4.09,4.09,0,0,0,0-.78,3.81,3.81,0,0,0-.17.76l-3,22.68.15,0Z" style="fill:#929497;fill-rule:evenodd"/><path d="M67.18,105.41A4.15,4.15,0,0,0,63.51,109l-3,22.69,6.28.82,3-22.68A4.15,4.15,0,0,0,67.18,105.41Z" style="fill:#929497;fill-rule:evenodd"/><path d="M18.13,138.21A4.11,4.11,0,1,0,10,137.14L7,159.82l8.14,1.07Z" style="fill:#6d6e70;fill-rule:evenodd"/><path d="M28,139.5a4.11,4.11,0,1,0-8.15-1.07l-3,22.69L25,162.18Z" style="fill:#6d6e70;fill-rule:evenodd"/><path d="M37.85,140.79a4.11,4.11,0,1,0-8.14-1.07l-3,22.69,8.15,1.07Z" style="fill:#6d6e70;fill-rule:evenodd"/><path d="M47.72,142.09A4.11,4.11,0,1,0,39.57,141l-3,22.68,8.15,1.07Z" style="fill:#6d6e70;fill-rule:evenodd"/><path d="M57.58,143.38a4.11,4.11,0,1,0-8.15-1.07l-3,22.69,8.14,1.07Z" style="fill:#6d6e70;fill-rule:evenodd"/><path d="M67.44,144.67a4.1,4.1,0,1,0-8.14-1.06l-3,22.68,8.15,1.07Z" style="fill:#6d6e70;fill-rule:evenodd"/><path d="M13.64,133.57A4.13,4.13,0,0,0,10,137.14L7,159.82l6.28.83,3-22.69A4.14,4.14,0,0,0,13.64,133.57Z" style="fill:#929497;fill-rule:evenodd"/><path d="M18.13,138.21a4.11,4.11,0,0,0,0-.78,5.65,5.65,0,0,0-.17.76l-3,22.68.14,0Z" style="fill:#929497;fill-rule:evenodd"/><path d="M23.51,134.86a4.15,4.15,0,0,0-3.67,3.57l-3,22.69,6.28.82,3-22.69A4.14,4.14,0,0,0,23.51,134.86Z" style="fill:#929497;fill-rule:evenodd"/><path d="M28,139.5a5.09,5.09,0,0,0,0-.78,4,4,0,0,0-.17.76l-3,22.69H25Z" style="fill:#929497;fill-rule:evenodd"/><path d="M33.37,136.16a4.13,4.13,0,0,0-3.66,3.56l-3,22.69,6.29.82,3-22.68A4.13,4.13,0,0,0,33.37,136.16Z" style="fill:#929497;fill-rule:evenodd"/><path d="M37.85,140.79a3.33,3.33,0,0,0,0-.77,3.72,3.72,0,0,0-.17.75l-3,22.69.15,0Z" style="fill:#929497;fill-rule:evenodd"/><path d="M43.23,137.45A4.13,4.13,0,0,0,39.57,141l-3,22.68,6.29.83,3-22.69A4.13,4.13,0,0,0,43.23,137.45Z" style="fill:#929497;fill-rule:evenodd"/><path d="M47.72,142.09a4.07,4.07,0,0,0,0-.78,4.67,4.67,0,0,0-.17.76l-3,22.68.14,0Z" style="fill:#929497;fill-rule:evenodd"/><path d="M53.1,138.75a4.15,4.15,0,0,0-3.67,3.56l-3,22.69,6.28.82,3-22.68A4.13,4.13,0,0,0,53.1,138.75Z" style="fill:#929497;fill-rule:evenodd"/><path d="M57.58,143.38a5,5,0,0,0,0-.77,3.72,3.72,0,0,0-.17.75l-3,22.69.14,0Z" style="fill:#929497;fill-rule:evenodd"/><path d="M63,140a4.13,4.13,0,0,0-3.66,3.57l-3,22.68,6.29.83,3-22.69A4.13,4.13,0,0,0,63,140Z" style="fill:#929497;fill-rule:evenodd"/><path d="M13.27,172.72a4.11,4.11,0,1,0-8.14-1.07l-3,22.69,8.15,1.07Z" style="fill:#6d6e70;fill-rule:evenodd"/><path d="M23.14,174A4.11,4.11,0,1,0,15,173l-3,22.68,8.15,1.07Z" style="fill:#6d6e70;fill-rule:evenodd"/><path d="M33,175.31a4.11,4.11,0,1,0-8.15-1.07l-3,22.68L30,198Z" style="fill:#6d6e70;fill-rule:evenodd"/><path d="M42.86,176.6a4.11,4.11,0,1,0-8.14-1.07l-3,22.69,8.15,1.07Z" style="fill:#6d6e70;fill-rule:evenodd"/><path d="M52.73,177.9a4.11,4.11,0,1,0-8.15-1.07l-3,22.68,8.15,1.07Z" style="fill:#6d6e70;fill-rule:evenodd"/><path d="M62.59,179.19a4.11,4.11,0,1,0-8.15-1.07l-3,22.69,8.14,1.07Z" style="fill:#6d6e70;fill-rule:evenodd"/><path d="M8.79,168.09a4.13,4.13,0,0,0-3.66,3.56l-3,22.69,6.28.82,3-22.68A4.13,4.13,0,0,0,8.79,168.09Z" style="fill:#929497;fill-rule:evenodd"/><path d="M13.27,172.72a3.33,3.33,0,0,0,0-.77,3.72,3.72,0,0,0-.17.75l-3,22.69.15,0Z" style="fill:#929497;fill-rule:evenodd"/><path d="M18.65,169.38A4.13,4.13,0,0,0,15,173l-3,22.68,6.29.83,3-22.69A4.12,4.12,0,0,0,18.65,169.38Z" style="fill:#929497;fill-rule:evenodd"/><path d="M23.14,174a4,4,0,0,0,0-.77A4.44,4.44,0,0,0,23,174l-3,22.68.14,0Z" style="fill:#929497;fill-rule:evenodd"/><path d="M28.52,170.67a4.15,4.15,0,0,0-3.67,3.57l-3,22.68,6.28.83,3-22.69A4.14,4.14,0,0,0,28.52,170.67Z" style="fill:#929497;fill-rule:evenodd"/><path d="M33,175.31a5.09,5.09,0,0,0,0-.78,4.94,4.94,0,0,0-.18.76l-3,22.68.14,0Z" style="fill:#929497;fill-rule:evenodd"/><path d="M38.38,172a4.13,4.13,0,0,0-3.66,3.56l-3,22.69L38,199l3-22.68A4.13,4.13,0,0,0,38.38,172Z" style="fill:#929497;fill-rule:evenodd"/><path d="M42.86,176.6a3.33,3.33,0,0,0,0-.77,3.72,3.72,0,0,0-.17.75l-3,22.69.15,0Z" style="fill:#929497;fill-rule:evenodd"/><path d="M48.24,173.26a4.13,4.13,0,0,0-3.66,3.57l-3,22.68,6.29.83,3-22.69A4.12,4.12,0,0,0,48.24,173.26Z" style="fill:#929497;fill-rule:evenodd"/><path d="M52.73,177.9a4.09,4.09,0,0,0,0-.78,3.81,3.81,0,0,0-.17.76l-3,22.68.15,0Z" style="fill:#929497;fill-rule:evenodd"/><path d="M58.11,174.55a4.15,4.15,0,0,0-3.67,3.57l-3,22.69,6.28.82,3-22.68A4.15,4.15,0,0,0,58.11,174.55Z" style="fill:#929497;fill-rule:evenodd"/></g></g></svg>