<svg xmlns="http://www.w3.org/2000/svg" viewBox="0 0 111.6 235.74"><g id="Layer_2" data-name="Layer 2"><g id="OBJECTS"><path d="M52.74,21.39c-5.2,72.11-7,148-47.21,211h19c3.48-13,16.16-22.59,31.27-22.59s27.8,9.62,31.27,22.59h19c-40.26-63-42-138.93-47.22-211l1.75-4.26H51l1.75,4.26ZM48.83,145.84h14l7,38.26H41.85Z" style="fill:#696558;fill-rule:evenodd"/><path d="M52.74,21.39c-5.2,72.11-7,148-47.21,211h19c3.48-13,16.16-22.59,31.27-22.59V184.1H41.85l7-38.26h7V17.13H51Z" style="fill:#5c594d;fill-rule:evenodd"/><rect x="22.15" y="181.94" width="67.31" height="9.92" style="fill:#5c584b"/><rect x="22.15" y="186.9" width="67.31" height="4.96" style="fill:#4d4a3f"/><rect x="38.21" y="131.58" width="35.19" height="6.69" style="fill:#5c584b"/><rect x="38.21" y="134.92" width="35.19" height="3.34" style="fill:#4d4a3f"/><path d="M60.57,17.13a6.25,6.25,0,0,0-2.9-4V11.94a.92.92,0,0,0,0-.29L55.8,0h0L54,11.65a.93.93,0,0,0,0,.29v1.17a6.23,6.23,0,0,0-2.89,4Z" style="fill:#8e8778;fill-rule:evenodd"/><path d="M55.8,0h0V17.13H51a6.23,6.23,0,0,1,2.89-4V11.94a.93.93,0,0,1,0-.29Z" style="fill:#7b7668;fill-rule:evenodd"/><rect x="50.12" y="15.71" width="11.38" height="3.09" style="fill:#5c584b"/><rect x="50.12" y="17.26" width="11.38" height="2.91" style="fill:#4d4a3f"/><rect y="230.85" width="111.6" height="4.89" style="fill:#6d6e70"/></g></g></svg>