<svg xmlns="http://www.w3.org/2000/svg" viewBox="0 0 41.71 56.96"><g id="Layer_2" data-name="Layer 2"><g id="OBJECTS"><path d="M15.35,1A5.11,5.11,0,0,1,17,.4C8.2,2.26,0,10.53,0,20.2.06,33.1,12.77,42.44,15.86,44.52-8.49,14.43,15.35,1,15.35,1Z" style="fill:#f7941e;fill-rule:evenodd"/><path d="M17.51,44.6l2.18,0C10.91,14.35,19.49.23,19.49.23A2.75,2.75,0,0,1,20,0a16.71,16.71,0,0,0-2.44.27l.52-.08C1.9,13.24,16.22,42.1,17.51,44.6Z" style="fill:#f7941e;fill-rule:evenodd"/><path d="M22.74,44.55l2.17,0C26.26,42,40.71,13.31,24.45.47c0,0,0,0,.15,0A19.68,19.68,0,0,0,22,.06l0,0C29.15,13.24,23.1,42.83,22.74,44.55Z" style="fill:#f7941e;fill-rule:evenodd"/><path d="M26.64,44.32C29.81,41.87,41.53,32,41.7,20,41.83,11.34,34.83,3.87,27,1.13,29.72,2.84,48.88,16.18,26.64,44.32Z" style="fill:#f7941e;fill-rule:evenodd"/><path d="M17.51,44.6C16.22,42.1,1.9,13.24,18.08.21l-.52.08L17,.4A5.11,5.11,0,0,0,15.35,1s-23.84,13.42.51,43.51a.78.78,0,0,1,.15.1Z" style="fill:#f1f2f2;fill-rule:evenodd"/><path d="M24.45.47c16.26,12.84,1.81,41.48.46,44.06h1.43l0,0,.32-.24C48.88,16.18,29.72,2.84,27,1.13A20.36,20.36,0,0,0,24.6.45C24.44.44,24.45.47,24.45.47Z" style="fill:#f1f2f2;fill-rule:evenodd"/><path d="M19.69,44.58l3,0c.36-1.72,6.41-31.31-.7-44.47l0,0C21.52,0,21.05,0,20.58,0L20,0a2.75,2.75,0,0,0-.51.21S10.91,14.35,19.69,44.58Z" style="fill:#f1f2f2;fill-rule:evenodd"/><polygon points="17.05 51.39 16.41 45.88 16.61 45.86 16.79 47.4 17.46 46.07 17.64 46.16 16.83 47.76 17.25 51.37 17.05 51.39" style="fill:#414042;fill-rule:evenodd"/><polygon points="21.04 51.36 21.04 47.79 19.77 46.19 19.93 46.06 21.05 47.47 21.05 45.42 21.25 45.42 21.25 47.43 22.21 46.02 22.37 46.14 21.25 47.78 21.25 47.78 21.24 51.36 21.04 51.36" style="fill:#414042;fill-rule:evenodd"/><polygon points="25.21 51.27 25.57 47.75 24.55 46.03 24.73 45.93 25.6 47.42 25.76 45.83 25.96 45.85 25.41 51.28 25.21 51.27" style="fill:#414042;fill-rule:evenodd"/><polygon points="25.89 46.19 16.46 46.24 14.05 43.25 28.11 43.18 25.89 46.19" style="fill:#f7941e;fill-rule:evenodd"/><path d="M16.16,45.87l-.34-.43,10.66,0-.32.43-10,0ZM14.74,44.1l-.35-.42,13.41-.07-.32.43Z" style="fill:#caebf3;fill-rule:evenodd"/><path d="M25.55,56.08c.58-1.42,0-4.88,0-4.88l-8.61,0s-.57,3.47,0,4.88C17.42,57.26,25.08,57.22,25.55,56.08Z" style="fill:#726658;fill-rule:evenodd"/><path d="M25.68,55.64a15.51,15.51,0,0,0-.16-4.44l-8.61,0a15.41,15.41,0,0,0-.11,4.44A22.5,22.5,0,0,0,25.68,55.64Z" style="fill:#414042;fill-rule:evenodd"/><rect x="16.67" y="51.06" width="9.23" height="0.5" transform="translate(-0.25 0.1) rotate(-0.28)" style="fill:#414042"/></g></g></svg>