<svg xmlns="http://www.w3.org/2000/svg" viewBox="0 0 242.83 76.93"><g id="Layer_2" data-name="Layer 2"><g id="OBJECTS"><path d="M43.47,71.62c0-.6,7.37-17.93,7.37-17.93l-3.78-3.27,24.4-4.83,113.68,4.95-4.23,9.28,21.45,4.43,4.9,7.73Z" style="fill:#876e6a;fill-rule:evenodd"/><polygon points="193.13 62.34 193.24 58.97 188.73 58.97 199.24 54.08 226.78 56.13 226.83 70.65 226.83 76.94 209.68 69.96 193.13 62.34" style="fill:#876e6a;fill-rule:evenodd"/><path d="M198.13,60.42l-15.2-17.27c6.45.56,17.4,1.78,23,4.59,3.44-4.53,29.87-4.77,36.93-4.23L222.34,65l-3.65.12-4.31-8-11.61.12-.27,3.63Z" style="fill:#e6e7e8;fill-rule:evenodd"/><path d="M198.13,60.42l4.37.49.08-1,.19-2.61,11.61-.12,3.26,6,1.05,1.94,3.65-.12-.32-.46c-5.55-7.9-10.55-12.88-16.12-16.81a33.44,33.44,0,0,0-7.55,12.13Z" style="fill:#dddddf;fill-rule:evenodd"/><path d="M66.58,51.15c-.46-.12-3.66-.06-3.66-.06-.63-6.21-3.36-14.59-15.69-25.91.39-1.08,30,.52,35.5,4-1.74-4.79-3.46-10.45-6.14-14.8,21.46,4.5,25.65,7.49,36.68,21.2C110.08,20.15,109.37,16,97.74,0,120.53,1.35,138.49,18.75,149,36.24c15.89-8.93,25.69-7.72,43.85-6.16,0,0-11.75,30.7-11.75,30.13s-5.28.18-5.28.18l-3.66-6.64L153.86,55.5l-.33,5-2.09-.12V55.68l-16.25-4L124,60.21,114.24,60l-2-7.61L95.45,50.13l-3.72,7.61L85,57.07,82.6,48,69,45.6Z" style="fill:#e6e7e8;fill-rule:evenodd"/><path d="M76.59,14.37c2.68,4.35,4.4,10,6.14,14.8l6,28.27,3,.3,3.72-7.61,16.77,2.29,2,7.61,5.54.1-6.51-24.56C102.24,21.86,98.05,18.87,76.59,14.37Z" style="fill:#dddddf;fill-rule:evenodd"/><path d="M135.19,51.7l16.25,4v4.71l2.09.12.33-5,18.33-1.75,3.66,6.64s4.59-.65,5.21-.28C180.28,59,172.9,48.74,165,42.58c-8.35-6.53-16-6.34-16-6.34L124,60.21Z" style="fill:#dddddf;fill-rule:evenodd"/><path d="M194.2,67.15h5.61v3.5h27l0-5.1L207.05,59.9l-99.19-.36L96.77,55.67l-8.74,1L71.84,49.88H59.71L53.31,53H42.72l-.18,4.29-3.42-.1-.16,5-4.7.24s0,5.24-.06,8.21H47V65.94h3.65v4.71h49.92V68H109v2.66h13.83v-2.9H129v2.9h.84v-2.9H136v2.9h.85v-2.9H143v2.9h.85v-2.9H150v2.9h.85v-2.9h6.14v2.9h.84v-2.9h6.14v2.9h.85v-2.9h6.13v2.9h.85v-2.9h6.13v2.9h.85v-2.9h6.13v2.9h9.34Z" style="fill:#c5a6a3;fill-rule:evenodd"/><rect y="70.65" width="226.83" height="6.28" style="fill:#f8a98e"/><rect y="73.79" width="226.83" height="3.14" style="fill:#de9880"/><rect x="71.73" y="63.44" width="74.78" height="0.6" style="fill:#876e6a"/><rect x="178.73" y="63.48" width="28.93" height="0.6" style="fill:#876e6a"/></g></g></svg>